<svg width="200" height="277" viewBox="0 0 200 277" fill="none" xmlns="http://www.w3.org/2000/svg">
<path d="M61.7165 98.11C61.7165 98.11 44.9052 87.2073 47.392 77.833C48.3946 74.0532 52.8254 69.4254 52.8254 69.4254C52.8254 69.4254 48.5737 34.0472 61.7165 18.98C73.0978 5.93228 85.4515 1.00133 102.714 2.16489C119.165 3.27373 128.926 10.4328 137.785 24.4202C146.524 38.218 142.724 65.9635 142.724 65.9635C142.724 65.9635 144.055 67.6383 144.7 74.371C145.345 81.1037 141.162 91.4733 137.291 92.1752C137.291 92.1752 136.797 107.012 134.821 111.463C134.258 112.732 132.775 113.037 131.718 113.936V123.951L137.785 133.719C137.785 133.719 188.175 155.823 196.807 185.153C208.015 223.234 149.272 275 149.272 275L41.392 269.923C41.392 269.923 -4.59885 224.238 2.80726 190.593C9.5747 159.85 61.7165 135.572 61.7165 135.572L70.1137 128.278L65.9151 113.194L61.7165 98.11Z" fill="url(#paint0_radial_5_57)"/>
<path d="M70.1137 128.278L65.9151 113.194M70.1137 128.278C70.1137 128.278 66.0069 136.475 65.9151 142.126C65.734 153.272 80.9806 166.36 80.9806 166.36M70.1137 128.278L61.7165 135.572M65.9151 113.194L61.7165 98.11C61.7165 98.11 44.9052 87.2073 47.392 77.833C48.3946 74.0532 52.8254 69.4254 52.8254 69.4254C52.8254 69.4254 48.5737 34.0472 61.7165 18.98C73.0978 5.93228 85.4515 1.00133 102.714 2.16489C119.165 3.27373 128.926 10.4328 137.785 24.4202C146.524 38.218 142.724 65.9635 142.724 65.9635C142.724 65.9635 144.055 67.6383 144.7 74.371C145.345 81.1037 141.162 91.4733 137.291 92.1752C137.291 92.1752 136.797 107.012 134.821 111.463C134.258 112.732 132.775 113.037 131.718 113.936M65.9151 113.194C65.9151 113.194 79.0048 131.246 100.245 130.751C121.484 130.257 119.427 120.503 131.718 113.936M131.718 113.936C131.718 117.847 131.718 123.951 131.718 123.951M131.718 134.708C131.411 140.899 117.322 161.481 109.63 166.36C103.342 170.348 99.7507 182.68 99.7507 182.68M131.718 134.708C131.718 134.708 136.797 163.392 131.718 178.724M131.718 134.708V123.951M99.7507 182.68C99.7507 182.68 120.497 161.909 127.412 165.37C134.327 168.832 126.581 178.724 126.581 178.724M99.7507 182.68L94.1526 181.197M80.9806 166.36C76.9297 169.257 74.6585 170.881 70.6076 173.778M80.9806 166.36L87.4019 173.778M61.7165 135.572C61.7165 135.572 9.5747 159.85 2.80726 190.593C-4.59884 224.238 41.392 269.923 41.392 269.923L149.272 275C149.272 275 208.015 223.234 196.807 185.153C188.175 155.823 137.785 133.719 137.785 133.719L131.718 123.951M61.7165 135.572V184.164L66.903 177.202M131.718 178.724C130.902 181.187 127.906 184.164 127.906 184.164L126.581 178.724M131.718 178.724C123.919 204.915 118.62 219.068 98.2688 238.071M70.6076 173.778C75.1146 177.917 78.2736 182.135 80.9806 187.626C83.714 193.171 84.3727 196.799 84.9322 202.957C85.2467 206.419 85.3789 208.412 84.9322 211.859C84.0254 218.858 78.4559 221.395 78.0169 228.551C77.56 235.997 84.9322 246.355 84.9322 246.355M70.6076 173.778C69.1609 175.115 66.903 177.202 66.903 177.202M84.9322 246.355L91.3535 247.962L98.2688 238.071M84.9322 246.355C78.1807 233.608 77.3591 237.96 70.6076 225.213C63.8561 212.465 66.903 177.202 66.903 177.202M98.2688 238.071C99.1946 236.576 90.1489 232.29 88.3898 228.18C86.908 224.718 91.2723 217.114 92.3414 209.881C92.8248 206.611 92.2737 204.687 94.1526 201.968C96.3926 198.727 98.9261 192.766 101.726 190.593C104.527 188.42 117.039 175.262 121.484 175.262C125.93 175.262 126.581 178.724 126.581 178.724M87.4019 173.778C87.4019 173.778 80.4125 172.629 79.9927 175.262C79.2802 179.731 87.4019 184.164 87.4019 184.164C87.4019 184.164 91.6719 186.816 93.3293 185.153C94.4426 184.036 94.1526 181.197 94.1526 181.197M87.4019 173.778L94.1526 181.197M127.906 68.9308C127.906 73.8473 123.925 77.833 119.015 77.833C114.104 77.833 110.124 73.8473 110.124 68.9308C110.124 64.0143 114.104 60.0287 119.015 60.0287C123.925 60.0287 127.906 64.0143 127.906 68.9308ZM129.882 68.9308C129.882 75.4862 125.562 79.8112 119.015 79.8112C112.467 79.8112 108.148 75.4862 108.148 68.9308C108.148 62.3755 112.467 58.545 119.015 58.545C125.562 58.545 129.882 62.3755 129.882 68.9308Z" stroke="#151719" stroke-width="3"/>
<defs>
<radialGradient id="paint0_radial_5_57" cx="0" cy="0" r="1" gradientUnits="userSpaceOnUse" gradientTransform="translate(100.607 2) rotate(90) scale(251.571 201.162)">
<stop offset="0.454" stop-color="#D8932D"/>
<stop offset="1" stop-color="#D8932D" stop-opacity="0"/>
</radialGradient>
</defs>
</svg>
