<svg width="200" height="277" viewBox="0 0 200 277" fill="none" xmlns="http://www.w3.org/2000/svg">
<path d="M61.9093 98.11C61.9093 98.11 45.098 87.2073 47.5847 77.833C48.5874 74.0532 53.0182 69.4254 53.0182 69.4254C53.0182 69.4254 48.7665 34.0472 61.9093 18.98C73.2906 5.93228 85.6443 1.00133 102.907 2.16489C119.358 3.27373 129.119 10.4328 137.978 24.4202C146.716 38.218 142.917 65.9635 142.917 65.9635C142.917 65.9635 144.248 67.6383 144.893 74.371C145.538 81.1037 141.354 91.4733 137.484 92.1752C137.484 92.1752 136.99 107.012 135.014 111.463C134.45 112.732 132.968 113.037 131.911 113.936V123.951L137.978 133.719C137.978 133.719 188.368 155.823 197 185.153C208.207 223.234 149.465 275 149.465 275L41.5847 269.923C41.5847 269.923 -4.4061 224.238 3.00001 190.593C9.76745 159.85 61.9093 135.572 61.9093 135.572L70.3064 128.278L66.1078 113.194L61.9093 98.11Z" fill="url(#paint0_radial_5_57)"/>
<path d="M70.3064 128.278L66.1078 113.194M70.3064 128.278C70.3064 128.278 66.1997 136.475 66.1078 142.126C65.9267 153.272 81.1733 166.36 81.1733 166.36M70.3064 128.278L61.9093 135.572M66.1078 113.194L61.9093 98.11C61.9093 98.11 45.098 87.2073 47.5847 77.833C48.5874 74.0532 53.0182 69.4254 53.0182 69.4254C53.0182 69.4254 48.7665 34.0472 61.9093 18.98C73.2906 5.93228 85.6443 1.00133 102.907 2.16489C119.358 3.27373 129.119 10.4328 137.978 24.4202C146.716 38.218 142.917 65.9635 142.917 65.9635C142.917 65.9635 144.248 67.6383 144.893 74.371C145.538 81.1037 141.354 91.4733 137.484 92.1752C137.484 92.1752 136.99 107.012 135.014 111.463C134.45 112.732 132.968 113.037 131.911 113.936M66.1078 113.194C66.1078 113.194 79.1975 131.246 100.437 130.751C121.677 130.257 119.62 120.503 131.911 113.936M131.911 113.936C131.911 117.847 131.911 123.951 131.911 123.951M131.911 134.708C131.604 140.899 117.515 161.481 109.822 166.36C103.534 170.348 99.9434 182.68 99.9434 182.68M131.911 134.708C131.911 134.708 136.99 163.392 131.911 178.724M131.911 134.708V123.951M99.9434 182.68C99.9434 182.68 120.689 161.909 127.605 165.37C134.52 168.832 126.773 178.724 126.773 178.724M99.9434 182.68L94.3453 181.197M81.1733 166.36C77.1224 169.257 74.8513 170.881 70.8004 173.778M81.1733 166.36L87.5947 173.778M61.9093 135.572C61.9093 135.572 9.76745 159.85 3.00001 190.593C-4.4061 224.238 41.5847 269.923 41.5847 269.923L149.465 275C149.465 275 208.207 223.234 197 185.153C188.368 155.823 137.978 133.719 137.978 133.719L131.911 123.951M61.9093 135.572V184.164L67.0957 177.202M131.911 178.724C131.095 181.187 128.099 184.164 128.099 184.164L126.773 178.724M131.911 178.724C124.112 204.915 118.812 219.068 98.4616 238.071M70.8004 173.778C75.3074 177.917 78.4664 182.135 81.1733 187.626C83.9068 193.171 84.5654 196.799 85.1249 202.957C85.4395 206.419 85.5716 208.412 85.1249 211.859C84.2182 218.858 78.6487 221.395 78.2096 228.551C77.7528 235.997 85.1249 246.355 85.1249 246.355M70.8004 173.778C69.3536 175.115 67.0957 177.202 67.0957 177.202M85.1249 246.355L91.5463 247.962L98.4616 238.071M85.1249 246.355C78.3734 233.608 77.5519 237.96 70.8004 225.213C64.0489 212.465 67.0957 177.202 67.0957 177.202M98.4616 238.071C99.3873 236.576 90.3416 232.29 88.5826 228.18C87.1007 224.718 91.4651 217.114 92.5342 209.881C93.0176 206.611 92.4665 204.687 94.3453 201.968C96.5853 198.727 99.1188 192.766 101.919 190.593C104.72 188.42 117.232 175.262 121.677 175.262C126.123 175.262 126.773 178.724 126.773 178.724M87.5947 173.778C87.5947 173.778 80.6052 172.629 80.1854 175.262C79.4729 179.731 87.5947 184.164 87.5947 184.164C87.5947 184.164 91.8646 186.816 93.5221 185.153C94.6354 184.036 94.3453 181.197 94.3453 181.197M87.5947 173.778L94.3453 181.197M128.099 68.9308C128.099 73.8473 124.118 77.833 119.207 77.833C114.297 77.833 110.316 73.8473 110.316 68.9308C110.316 64.0143 114.297 60.0287 119.207 60.0287C124.118 60.0287 128.099 64.0143 128.099 68.9308ZM130.074 68.9308C130.074 75.4862 125.755 79.8112 119.207 79.8112C112.66 79.8112 108.341 75.4862 108.341 68.9308C108.341 62.3755 112.66 58.545 119.207 58.545C125.755 58.545 130.074 62.3755 130.074 68.9308Z" stroke="#151719" stroke-width="3"/>
<defs>
<radialGradient id="paint0_radial_5_57" cx="0" cy="0" r="1" gradientUnits="userSpaceOnUse" gradientTransform="translate(100.8 2) rotate(90) scale(251.571 201.162)">
<stop offset="0.454" stop-color="#343238"/>
<stop offset="1" stop-color="#343238" stop-opacity="0"/>
</radialGradient>
</defs>
</svg>
