<svg width="211" height="256" viewBox="0 0 211 256" fill="none" xmlns="http://www.w3.org/2000/svg">
<path d="M57.1688 79.6627L53.5912 66.2726L49.5665 56.8995V44.402L57.1688 25.6559L68.7957 10.0341L96.5216 2L132.297 14.0511L148.396 35.4753L142.135 69.3969L146.16 75.6457V87.6968L139.452 95.7308L132.297 101.087L133.191 111.353L169.414 149.738C169.414 149.738 197.797 163.77 206.083 180.535C219.073 206.814 189.583 253.762 189.583 253.762H173.583L124.247 253.288H89.8137L39.4574 253.762L32.5733 253.288C32.5733 253.288 -12.9214 196.692 7.08337 168.484C18.871 151.862 53.5912 144.828 53.5912 144.828L71.4789 130.545L57.1688 90.8211V79.6627Z" fill="url(#paint0_radial_5_53)"/>
<path d="M53.5912 66.2726L57.1688 79.6627V90.8211L71.4789 130.545M53.5912 66.2726L57.1688 50.2044L63.8766 33.2436H75.9508L110.384 27.8876L114.409 39.046L119.328 46.1874L114.409 56.8995L121.564 77.431L124.247 85.9114H128.272L129.614 81.0017L132.297 73.414L142.135 69.3969M53.5912 66.2726L49.5665 56.8995V44.402L57.1688 25.6559L68.7957 10.0341L96.5216 2L132.297 14.0511L148.396 35.4753L142.135 69.3969M71.4789 130.545L110.384 126.974L121.564 118.048L128.272 98.4089L132.297 101.087M71.4789 130.545C80.5292 142.889 86.156 149.598 101.441 159.557M71.4789 130.545V159.557L83.2004 180.535M71.4789 130.545L53.5912 144.828C53.5912 144.828 18.871 151.862 7.08337 168.484C-12.9214 196.692 32.5733 253.288 32.5733 253.288L39.4574 253.762M132.297 101.087L139.452 95.7308L146.16 87.6968V75.6457L142.135 69.3969M132.297 101.087L133.191 111.353M101.441 159.557C103.528 165.211 110.384 176.518 110.384 176.518C110.384 176.518 115.789 167.457 121.564 155.415M101.441 159.557L92.3206 170.046M133.191 111.353L134.086 121.618C131.768 132.512 126.529 145.065 121.564 155.415M133.191 111.353C133.191 111.353 143.575 123.348 146.16 132.777C149.207 143.894 144.371 162.235 144.371 162.235L141.199 168.484M133.191 111.353L169.414 149.738C169.414 149.738 197.797 163.77 206.083 180.535C219.073 206.814 189.583 253.762 189.583 253.762H173.583M121.564 155.415L131.382 161.949M141.199 168.484L131.382 161.949M141.199 168.484L116.049 218.027M83.2004 180.535L110.384 229.186L116.049 218.027M83.2004 180.535L92.3206 170.046M92.3206 170.046L106.944 189.015M131.382 161.949L116.049 184.973M106.944 189.015L110.384 193.479L116.049 184.973M106.944 189.015L105.018 222.937M116.049 218.027C116.774 216.599 116.351 195.396 116.049 184.973M124.247 253.288L127.378 241.683C138.738 239.005 158.558 237.36 173.583 249.5V253.762M124.247 253.288L173.583 253.762M124.247 253.288H89.8137M89.8137 253.288L92.3206 241.683C80.9602 239.005 54.483 236.684 39.4574 248.825V253.762M89.8137 253.288L39.4574 253.762M83.2004 205.53C71.8401 202.852 45.3629 200.531 30.3373 212.671L32.5733 221.152C47.5989 209.011 74.076 211.332 85.4364 214.01L83.2004 205.53ZM133.618 201.959C144.978 199.281 169.145 201.87 184.171 214.01L181.488 222.937C166.462 210.797 142.742 209.993 131.382 212.671L133.618 201.959ZM130.061 221.152C141.421 218.474 165.142 219.277 180.167 231.417L177.484 241.683C162.458 229.543 138.738 228.739 127.378 231.417L130.061 221.152ZM88.0249 222.937C76.6646 220.259 50.1874 217.938 35.1618 230.078L36.9506 238.559C51.9762 226.418 78.4533 228.739 89.8137 231.417L88.0249 222.937Z" stroke="#151719" stroke-width="3"/>
<defs>
<radialGradient id="paint0_radial_5_53" cx="0" cy="0" r="1" gradientUnits="userSpaceOnUse" gradientTransform="translate(106.215 2) rotate(90) scale(232 212.603)">
<stop stop-color="#3996CA"/>
<stop offset="1" stop-color="#353238" stop-opacity="0"/>
</radialGradient>
</defs>
</svg>
