<svg width="211" height="256" viewBox="0 0 211 256" fill="none" xmlns="http://www.w3.org/2000/svg">
<path d="M57.0854 79.6627L53.5079 66.2726L49.4831 56.8995V44.402L57.0854 25.6559L68.7123 10.0341L96.4382 2L132.213 14.0511L148.312 35.4753L142.052 69.3969L146.076 75.6457V87.6968L139.369 95.7308L132.213 101.087L133.108 111.353L169.33 149.738C169.33 149.738 197.713 163.77 206 180.535C218.99 206.814 189.5 253.762 189.5 253.762H173.5L124.164 253.288H89.7303L39.374 253.762L32.4899 253.288C32.4899 253.288 -13.0048 196.692 6.99999 168.484C18.7876 151.862 53.5079 144.828 53.5079 144.828L71.3955 130.545L57.0854 90.8211V79.6627Z" fill="url(#paint0_radial_5_53)"/>
<path d="M53.5079 66.2726L57.0854 79.6627V90.8211L71.3955 130.545M53.5079 66.2726L57.0854 50.2044L63.7933 33.2436H75.8674L110.301 27.8876L114.326 39.046L119.245 46.1874L114.326 56.8995L121.481 77.431L124.164 85.9114H128.189L129.53 81.0017L132.213 73.414L142.052 69.3969M53.5079 66.2726L49.4831 56.8995V44.402L57.0854 25.6559L68.7123 10.0341L96.4382 2L132.213 14.0511L148.312 35.4753L142.052 69.3969M71.3955 130.545L110.301 126.974L121.481 118.048L128.189 98.4089L132.213 101.087M71.3955 130.545C80.4459 142.889 86.0726 149.598 101.357 159.557M71.3955 130.545V159.557L83.1171 180.535M71.3955 130.545L53.5079 144.828C53.5079 144.828 18.7876 151.862 6.99999 168.484C-13.0048 196.692 32.4899 253.288 32.4899 253.288L39.374 253.762M132.213 101.087L139.369 95.7308L146.076 87.6968V75.6457L142.052 69.3969M132.213 101.087L133.108 111.353M101.357 159.557C103.444 165.211 110.301 176.518 110.301 176.518C110.301 176.518 115.705 167.457 121.481 155.415M101.357 159.557L92.2372 170.046M133.108 111.353L134.002 121.618C131.684 132.512 126.445 145.065 121.481 155.415M133.108 111.353C133.108 111.353 143.492 123.348 146.076 132.777C149.124 143.894 144.288 162.235 144.288 162.235L141.116 168.484M133.108 111.353L169.33 149.738C169.33 149.738 197.713 163.77 206 180.535C218.99 206.814 189.5 253.762 189.5 253.762H173.5M121.481 155.415L131.298 161.949M141.116 168.484L131.298 161.949M141.116 168.484L115.966 218.027M83.1171 180.535L110.301 229.186L115.966 218.027M83.1171 180.535L92.2372 170.046M92.2372 170.046L106.86 189.015M131.298 161.949L115.966 184.973M106.86 189.015L110.301 193.479L115.966 184.973M106.86 189.015L104.935 222.937M115.966 218.027C116.691 216.599 116.268 195.396 115.966 184.973M124.164 253.288L127.294 241.683C138.655 239.005 158.474 237.36 173.5 249.5V253.762M124.164 253.288L173.5 253.762M124.164 253.288H89.7303M89.7303 253.288L92.2372 241.683C80.8768 239.005 54.3997 236.684 39.374 248.825V253.762M89.7303 253.288L39.374 253.762M83.1171 205.53C71.7567 202.852 45.2795 200.531 30.2539 212.671L32.4899 221.152C47.5155 209.011 73.9926 211.332 85.353 214.01L83.1171 205.53ZM133.534 201.959C144.895 199.281 169.062 201.87 184.088 214.01L181.404 222.937C166.379 210.797 142.659 209.993 131.298 212.671L133.534 201.959ZM129.978 221.152C141.338 218.474 165.058 219.277 180.084 231.417L177.401 241.683C162.375 229.543 138.655 228.739 127.294 231.417L129.978 221.152ZM87.9416 222.937C76.5812 220.259 50.104 217.938 35.0784 230.078L36.8672 238.559C51.8928 226.418 78.37 228.739 89.7303 231.417L87.9416 222.937Z" stroke="#151719" stroke-width="3"/>
<defs>
<radialGradient id="paint0_radial_5_53" cx="0" cy="0" r="1" gradientUnits="userSpaceOnUse" gradientTransform="translate(106.132 2) rotate(90) scale(232 212.603)">
<stop offset="0.454" stop-color="#343238"/>
<stop offset="1" stop-color="#343238" stop-opacity="0"/>
</radialGradient>
</defs>
</svg>
