<svg width="209" height="243" viewBox="0 0 209 243" fill="none" xmlns="http://www.w3.org/2000/svg">
<path d="M58.8488 128.136C58.8488 128.136 16.1673 139.674 5.20591 161.858C-9.11925 190.849 29.2059 241.109 29.2059 241.109H98.7494H109.749H178.706C178.706 241.109 217.987 191 203.706 161.858C192.89 139.786 150.563 128.136 150.563 128.136C150.563 128.136 149.636 118.883 145.849 114.903C143.773 112.722 141.141 113.103 139.42 110.634C135.521 105.04 143.625 100.853 145.849 94.4133C147.95 88.3284 148.97 84.8554 150.563 78.6194C151.915 73.3275 154.412 70.3544 153.563 64.9598C153.062 61.7791 151.359 60.3967 150.563 57.2762C148.197 47.9975 155.491 42.3237 153.563 32.945C151.714 23.951 148.829 18.6127 141.992 12.4556C135.21 6.34845 129.529 4.8494 120.563 3.06461C113.206 1.60004 97.8816 1.69095 88.8488 3.06461C79.8159 4.43827 74.2019 6.34845 67.4202 12.4556C60.5831 18.6127 57.6978 23.951 55.8488 32.945C53.9206 42.3237 61.2146 47.9975 58.8488 57.2762C58.0531 60.3967 56.3495 61.7791 55.8488 64.9598C54.9995 70.3544 57.4969 73.3275 58.8488 78.6194C60.4418 84.8554 61.462 88.3284 63.5631 94.4133C65.7867 100.853 73.8908 105.04 69.9916 110.634C68.271 113.103 65.6387 112.722 63.5631 114.903C59.7758 118.883 58.8488 128.136 58.8488 128.136Z" fill="url(#paint0_radial_5_49)"/>
<path d="M122.702 148.109C122.554 149.908 122.366 151.863 122.129 153.9C122.102 154.135 122.074 154.372 122.045 154.609C121.837 156.326 121.594 158.094 121.31 159.87C121.27 160.116 121.23 160.363 121.189 160.609L120.008 166.609C120.517 164.41 120.947 162.134 121.31 159.87C121.594 158.094 121.837 156.326 122.045 154.609C122.074 154.372 122.102 154.135 122.129 153.9" fill="url(#paint1_radial_5_49)"/>
<path d="M95.2494 181.609C87.5678 174.558 85.7661 150.179 85.3615 141.341M95.2494 181.609V190.193C95.2494 191.124 95.4662 192.043 95.8828 192.876L98.1159 197.343C98.5325 198.176 98.7494 199.094 98.7494 200.026V241.109M95.2494 181.609H113.249M85.3615 141.341C85.269 139.323 86.2524 137.422 87.9958 136.401C91.7756 134.188 98.7391 130.609 104.249 130.609C109.76 130.609 116.723 134.188 120.503 136.401C122.246 137.422 123.23 139.323 123.137 141.341C123.061 142.999 122.936 145.202 122.733 147.735C122.723 147.859 122.713 147.984 122.702 148.109M85.3615 141.341C85.441 143.08 85.5747 145.419 85.7964 148.109M85.7964 148.109L100.116 145.109M85.7964 148.109C85.9618 150.115 86.1762 152.317 86.4537 154.609M86.4537 154.609L100.749 151.109M86.4537 154.609C86.6903 156.564 86.9728 158.586 87.3099 160.609M87.3099 160.609L100.749 157.609M87.3099 160.609L88.491 166.609L100.749 164.109M122.702 148.109C122.554 149.908 122.366 151.863 122.129 153.9C122.102 154.135 122.074 154.372 122.045 154.609M122.702 148.109L108.383 145.109M122.045 154.609C121.837 156.326 121.594 158.094 121.31 159.87M122.045 154.609L107.749 151.109M121.31 159.87C120.947 162.134 120.517 164.41 120.008 166.609M121.31 159.87C121.27 160.116 121.23 160.363 121.189 160.609M120.008 166.609C118.527 173.002 116.375 178.74 113.249 181.609M120.008 166.609L121.189 160.609M120.008 166.609L107.749 164.109M113.249 181.609L113.249 190.193C113.249 191.124 113.033 192.043 112.616 192.876L110.383 197.343C109.966 198.176 109.749 199.094 109.749 200.026V241.109M121.189 160.609L107.749 157.609M109.749 241.109H178.706C178.706 241.109 217.987 191 203.706 161.858C192.89 139.786 150.563 128.136 150.563 128.136C150.563 128.136 149.636 118.883 145.849 114.903C143.773 112.722 141.141 113.103 139.42 110.634C135.521 105.04 143.625 100.853 145.849 94.4133C147.95 88.3284 148.97 84.8554 150.563 78.6194C151.915 73.3275 154.412 70.3544 153.563 64.9598C153.062 61.7791 151.359 60.3967 150.563 57.2762C148.197 47.9975 155.491 42.3237 153.563 32.945C151.714 23.951 148.829 18.6127 141.992 12.4556C135.21 6.34845 129.529 4.8494 120.563 3.06461C113.206 1.60004 97.8816 1.69095 88.8488 3.06461C79.8159 4.43827 74.2019 6.34845 67.4202 12.4556C60.5831 18.6127 57.6978 23.951 55.8488 32.945C53.9206 42.3237 61.2146 47.9975 58.8488 57.2762C58.0531 60.3967 56.3495 61.7791 55.8488 64.9598C54.9995 70.3544 57.4969 73.3275 58.8488 78.6194C60.4418 84.8554 61.462 88.3284 63.5631 94.4133C65.7867 100.853 73.8908 105.04 69.9916 110.634C68.271 113.103 65.6387 112.722 63.5631 114.903C59.7758 118.883 58.8488 128.136 58.8488 128.136C58.8488 128.136 16.1673 139.674 5.20591 161.858C-9.11925 190.849 29.2059 241.109 29.2059 241.109H98.7494M109.749 241.109H98.7494" stroke="#151719" stroke-width="3"/>
<defs>
<radialGradient id="paint0_radial_5_49" cx="0" cy="0" r="1" gradientUnits="userSpaceOnUse" gradientTransform="translate(104.931 2) rotate(90) scale(220.341 209.982)">
<stop offset="0.454" stop-color="#501BA7"/>
<stop offset="1" stop-color="#343238" stop-opacity="0"/>
</radialGradient>
<radialGradient id="paint1_radial_5_49" cx="0" cy="0" r="1" gradientUnits="userSpaceOnUse" gradientTransform="translate(104.931 2) rotate(90) scale(220.341 209.982)">
<stop offset="0.454" stop-color="#501BA7"/>
<stop offset="1" stop-color="#343238" stop-opacity="0"/>
</radialGradient>
</defs>
</svg>
