<svg width="209" height="243" viewBox="0 0 209 243" fill="none" xmlns="http://www.w3.org/2000/svg">
<path d="M59.1428 128.526C59.1428 128.526 16.4614 140.064 5.49997 162.248C-8.82518 191.24 29.5 241.5 29.5 241.5H99.0434H110.043H179C179 241.5 218.281 191.39 204 162.248C193.184 140.177 150.857 128.526 150.857 128.526C150.857 128.526 149.93 119.273 146.143 115.293C144.067 113.112 141.435 113.493 139.714 111.025C135.815 105.43 143.919 101.244 146.143 94.8039C148.244 88.719 149.264 85.246 150.857 79.01C152.209 73.7181 154.706 70.745 153.857 65.3504C153.356 62.1697 151.653 60.7873 150.857 57.6668C148.491 48.3881 155.785 42.7143 153.857 33.3356C152.008 24.3416 149.123 19.0033 142.286 12.8462C135.504 6.73904 129.823 5.23999 120.857 3.45521C113.5 1.99063 98.1757 2.08154 89.1428 3.45521C80.11 4.82887 74.4959 6.73904 67.7143 12.8462C60.8771 19.0033 57.9919 24.3416 56.1428 33.3356C54.2147 42.7143 61.5086 48.3881 59.1428 57.6668C58.3472 60.7873 56.6436 62.1697 56.1428 65.3504C55.2936 70.745 57.791 73.7181 59.1428 79.01C60.7359 85.246 61.7561 88.719 63.8571 94.8039C66.0808 101.244 74.1849 105.43 70.2857 111.025C68.565 113.493 65.9328 113.112 63.8571 115.293C60.0699 119.273 59.1428 128.526 59.1428 128.526Z" fill="url(#paint0_radial_5_49)"/>
<path d="M122.996 148.5C122.848 150.298 122.661 152.253 122.423 154.29C122.396 154.526 122.368 154.762 122.339 155C122.131 156.717 121.888 158.485 121.604 160.261C121.564 160.507 121.524 160.754 121.483 161L120.302 167C120.811 164.801 121.241 162.525 121.604 160.261C121.888 158.485 122.131 156.717 122.339 155C122.368 154.762 122.396 154.526 122.423 154.29" fill="url(#paint1_radial_5_49)"/>
<path d="M95.5434 182C87.8619 174.949 86.0602 150.57 85.6555 141.732M95.5434 182V190.584C95.5434 191.515 95.7603 192.434 96.1769 193.267L98.41 197.733C98.8266 198.566 99.0434 199.485 99.0434 200.416V241.5M95.5434 182H113.543M85.6555 141.732C85.5631 139.714 86.5465 137.813 88.2898 136.792C92.0697 134.579 99.0332 131 104.543 131C110.054 131 117.017 134.579 120.797 136.792C122.54 137.813 123.524 139.714 123.431 141.732C123.355 143.389 123.23 145.593 123.027 148.126C123.017 148.25 123.007 148.374 122.996 148.5M85.6555 141.732C85.7351 143.47 85.8687 145.81 86.0905 148.5M86.0905 148.5L100.41 145.5M86.0905 148.5C86.2559 150.506 86.4702 152.707 86.7477 155M86.7477 155L101.043 151.5M86.7477 155C86.9843 156.955 87.2668 158.976 87.604 161M87.604 161L101.043 158M87.604 161L88.7851 167L101.043 164.5M122.996 148.5C122.848 150.298 122.661 152.253 122.423 154.29C122.396 154.526 122.368 154.762 122.339 155M122.996 148.5L108.677 145.5M122.339 155C122.131 156.717 121.888 158.485 121.604 160.261M122.339 155L108.043 151.5M121.604 160.261C121.241 162.525 120.811 164.801 120.302 167M121.604 160.261C121.564 160.507 121.524 160.754 121.483 161M120.302 167C118.821 173.393 116.669 179.131 113.543 182M120.302 167L121.483 161M120.302 167L108.043 164.5M113.543 182L113.543 190.584C113.543 191.515 113.327 192.434 112.91 193.267L110.677 197.733C110.26 198.566 110.043 199.485 110.043 200.416V241.5M121.483 161L108.043 158M110.043 241.5H179C179 241.5 218.281 191.39 204 162.248C193.184 140.177 150.857 128.526 150.857 128.526C150.857 128.526 149.93 119.273 146.143 115.293C144.067 113.112 141.435 113.493 139.714 111.025C135.815 105.43 143.919 101.244 146.143 94.8039C148.244 88.719 149.264 85.246 150.857 79.01C152.209 73.7181 154.706 70.745 153.857 65.3504C153.356 62.1697 151.653 60.7873 150.857 57.6668C148.491 48.3881 155.785 42.7143 153.857 33.3356C152.008 24.3416 149.123 19.0033 142.286 12.8462C135.504 6.73904 129.823 5.23999 120.857 3.45521C113.5 1.99063 98.1757 2.08154 89.1428 3.45521C80.11 4.82887 74.4959 6.73904 67.7143 12.8462C60.8771 19.0033 57.9919 24.3416 56.1428 33.3356C54.2147 42.7143 61.5086 48.3881 59.1428 57.6668C58.3472 60.7873 56.6436 62.1697 56.1428 65.3504C55.2936 70.745 57.791 73.7181 59.1428 79.01C60.7359 85.246 61.7561 88.719 63.8571 94.8039C66.0808 101.244 74.1849 105.43 70.2857 111.025C68.565 113.493 65.9328 113.112 63.8571 115.293C60.0699 119.273 59.1428 128.526 59.1428 128.526C59.1428 128.526 16.4614 140.064 5.49997 162.248C-8.82518 191.24 29.5 241.5 29.5 241.5H99.0434M110.043 241.5H99.0434" stroke="#151719" stroke-width="3"/>
<defs>
<radialGradient id="paint0_radial_5_49" cx="0" cy="0" r="1" gradientUnits="userSpaceOnUse" gradientTransform="translate(105.225 2.3906) rotate(90) scale(220.341 209.982)">
<stop offset="0.454" stop-color="#343238"/>
<stop offset="1" stop-color="#343238" stop-opacity="0"/>
</radialGradient>
<radialGradient id="paint1_radial_5_49" cx="0" cy="0" r="1" gradientUnits="userSpaceOnUse" gradientTransform="translate(105.225 2.3906) rotate(90) scale(220.341 209.982)">
<stop offset="0.454" stop-color="#343238"/>
<stop offset="1" stop-color="#343238" stop-opacity="0"/>
</radialGradient>
</defs>
</svg>
