<svg width="46" height="46" viewBox="0 0 46 46" fill="none" xmlns="http://www.w3.org/2000/svg">
<rect x="1" y="1" width="44" height="44" rx="10" fill="#343238"/>
<rect x="1" y="1" width="44" height="44" rx="10" stroke="#151719" stroke-width="2"/>
<path d="M20 37C19.4477 37 19 36.5523 19 36V27C19 26.4477 19.4477 26 20 26H22.1408C22.6931 26 23.1408 26.4477 23.1408 27V29.6123H24.631V27C24.631 26.4477 25.0787 26 25.631 26H27.7675C28.026 26 28.2615 26.098 28.439 26.2589C28.6165 26.098 28.852 26 29.1104 26H32.7693C33.5643 26 34.3077 26.1584 34.9633 26.5166C35.6091 26.8649 36.1214 27.3629 36.4784 28.0001C36.8371 28.6375 37 29.3532 37 30.1157C37 30.8837 36.833 31.6039 36.4654 32.2433L20 37ZM20 37H22.1408C22.6931 37 23.1408 36.5523 23.1408 36V33.3833H24.631V36C24.631 36.5523 25.0787 37 25.631 37H27.7675C28.026 37 28.2615 36.902 28.439 36.7411C28.6165 36.902 28.852 37 29.1104 37H31.2513C31.8035 37 32.2513 36.5523 32.2513 36V34.2051M20 37L32.2513 34.2051M32.2513 34.2051H32.7044C33.507 34.2051 34.2566 34.0538 34.9196 33.7111C35.5757 33.3719 36.0996 32.881 36.4645 32.245L32.2513 34.2051ZM13.5283 14C13.5283 14.5523 13.976 15 14.5283 15H16.4765C17.0288 15 17.4765 14.5523 17.4765 14V12.4765H19C19.5523 12.4765 20 12.0288 20 11.4765V9.52831C20 8.97603 19.5523 8.52831 19 8.52831H17.4765V7C17.4765 6.44772 17.0288 6 16.4765 6H14.5283C13.976 6 13.5283 6.44772 13.5283 7V8.52831H12C11.4477 8.52831 11 8.97603 11 9.52831V11.4765C11 12.0288 11.4477 12.4765 12 12.4765H13.5283V14ZM24.5283 20C24.5283 20.5523 24.976 21 25.5283 21H27.4765C28.0288 21 28.4765 20.5523 28.4765 20V18.4765H30C30.5523 18.4765 31 18.0288 31 17.4765V15.5283C31 14.976 30.5523 14.5283 30 14.5283H28.4765V13C28.4765 12.4477 28.0288 12 27.4765 12H25.5283C24.976 12 24.5283 12.4477 24.5283 13V14.5283H23C22.4477 14.5283 22 14.976 22 15.5283V17.4765C22 18.0288 22.4477 18.4765 23 18.4765H24.5283V20ZM11.5283 27C11.5283 27.5523 11.976 28 12.5283 28H14.4765C15.0288 28 15.4765 27.5523 15.4765 27V25.4765H17C17.5523 25.4765 18 25.0288 18 24.4765V22.5283C18 21.976 17.5523 21.5283 17 21.5283H15.4765V20C15.4765 19.4477 15.0288 19 14.4765 19H12.5283C11.976 19 11.5283 19.4477 11.5283 20V21.5283H10C9.44772 21.5283 9 21.976 9 22.5283V24.4765C9 25.0288 9.44772 25.4765 10 25.4765H11.5283V27ZM32.6529 30.4331L32.6529 30.4331L32.6481 30.4357C32.6145 30.4534 32.5169 30.4912 32.3065 30.4912H32.2513V29.7534H32.3065C32.515 29.7534 32.6194 29.7901 32.6623 29.8119C32.7117 29.837 32.7252 29.8564 32.7358 29.8758L32.7358 29.8758L32.7388 29.8811C32.7532 29.9071 32.7813 29.9731 32.7813 30.1157C32.7813 30.2495 32.7555 30.3224 32.7344 30.3626C32.7226 30.3836 32.7052 30.4059 32.6529 30.4331Z" fill="#32B04E" stroke="#151719" stroke-width="2" stroke-linejoin="round"/>
</svg>
