<svg width="30" height="33" viewBox="0 0 30 33" fill="none" xmlns="http://www.w3.org/2000/svg">
<path d="M12 32C11.4477 32 11 31.5523 11 31V22C11 21.4477 11.4477 21 12 21H14.1408C14.6931 21 15.1408 21.4477 15.1408 22V24.6123H16.631V22C16.631 21.4477 17.0787 21 17.631 21H19.7675C20.026 21 20.2615 21.098 20.439 21.2589C20.6165 21.098 20.852 21 21.1104 21H24.7693C25.5643 21 26.3077 21.1584 26.9633 21.5166C27.6091 21.8649 28.1214 22.3629 28.4784 23.0001C28.8371 23.6375 29 24.3532 29 25.1157C29 25.8837 28.833 26.6039 28.4654 27.2433L12 32ZM12 32H14.1408C14.6931 32 15.1408 31.5523 15.1408 31V28.3833H16.631V31C16.631 31.5523 17.0787 32 17.631 32H19.7675C20.026 32 20.2615 31.902 20.439 31.7411C20.6165 31.902 20.852 32 21.1104 32H23.2513C23.8035 32 24.2513 31.5523 24.2513 31V29.2051M12 32L24.2513 29.2051M24.2513 29.2051H24.7044C25.507 29.2051 26.2566 29.0538 26.9196 28.7111C27.5757 28.3719 28.0996 27.881 28.4645 27.245L24.2513 29.2051ZM5.52832 9C5.52832 9.55228 5.97603 10 6.52832 10H8.47652C9.0288 10 9.47652 9.55228 9.47652 9V7.47652H11C11.5523 7.47652 12 7.0288 12 6.47652V4.52831C12 3.97603 11.5523 3.52831 11 3.52831H9.47652V2C9.47652 1.44772 9.0288 1 8.47652 1H6.52832C5.97603 1 5.52832 1.44772 5.52832 2V3.52831H4C3.44772 3.52831 3 3.97603 3 4.52831V6.47652C3 7.0288 3.44772 7.47652 4 7.47652H5.52832V9ZM16.5283 15C16.5283 15.5523 16.976 16 17.5283 16H19.4765C20.0288 16 20.4765 15.5523 20.4765 15V13.4765H22C22.5523 13.4765 23 13.0288 23 12.4765V10.5283C23 9.97603 22.5523 9.52831 22 9.52831H20.4765V8C20.4765 7.44772 20.0288 7 19.4765 7H17.5283C16.976 7 16.5283 7.44772 16.5283 8V9.52831H15C14.4477 9.52831 14 9.97603 14 10.5283V12.4765C14 13.0288 14.4477 13.4765 15 13.4765H16.5283V15ZM3.52831 22C3.52831 22.5523 3.97603 23 4.52831 23H6.47652C7.0288 23 7.47652 22.5523 7.47652 22V20.4765H9C9.55228 20.4765 10 20.0288 10 19.4765V17.5283C10 16.976 9.55228 16.5283 9 16.5283H7.47652V15C7.47652 14.4477 7.0288 14 6.47652 14H4.52831C3.97603 14 3.52831 14.4477 3.52831 15V16.5283H2C1.44772 16.5283 1 16.976 1 17.5283V19.4765C1 20.0288 1.44772 20.4765 2 20.4765H3.52831V22ZM24.6529 25.4331L24.6529 25.4331L24.6481 25.4357C24.6145 25.4534 24.5169 25.4912 24.3065 25.4912H24.2513V24.7534H24.3065C24.515 24.7534 24.6194 24.7901 24.6623 24.8119C24.7117 24.837 24.7252 24.8564 24.7358 24.8758L24.7358 24.8758L24.7388 24.8811C24.7532 24.9071 24.7813 24.9731 24.7813 25.1157C24.7813 25.2495 24.7555 25.3224 24.7344 25.3626C24.7226 25.3836 24.7052 25.4059 24.6529 25.4331Z" fill="#32B04E" stroke="#151719" stroke-width="2" stroke-linejoin="round"/>
</svg>
