<svg width="191" height="289" viewBox="0 0 191 289" fill="none" xmlns="http://www.w3.org/2000/svg">
<path d="M151.525 116.003C149.897 119.706 151.659 122.683 149.025 125.753C146.659 128.51 141.025 130.503 141.025 130.503L139.561 135.503C139.561 135.503 143.449 145.302 148.081 153.5C149.2 155.482 150.363 157.37 151.525 159.003C161.726 173.346 177.642 172.527 186.025 188.003C192.525 200.003 186.025 287.003 186.025 287.003L162.632 282.003L121.798 255.5H89.729L34 279.17L8.02484 282.003C8.02484 282.003 -0.975293 200.503 3.02484 192.003C7.146 183.246 48.6041 145.306 70.3557 125.753C78.2321 118.672 83.5246 114.003 83.5246 114.003V88.5029C81.0246 88.0029 78.0248 81.5029 76.0247 76.5029C74.0245 71.5029 72.0248 63.0029 76.0247 60.5029C77.3493 59.675 78.5246 60.5029 78.5246 60.5029C78.5246 60.5029 74.6676 44.695 77.0248 35.0013C82.3618 13.0541 101.939 2.22332 124.525 2.00289C141.735 1.83492 152.026 9.00147 164.525 20.5029C167.785 23.503 169.949 32.0562 170.525 40.0029C171.051 47.2742 168.025 58.5029 168.025 58.5029C168.025 58.5029 170.536 78.7984 168.025 83.5029C165.513 88.2073 158.525 99.0026 158.525 103.503C158.525 108.003 153.777 110.881 151.525 116.003Z" fill="url(#paint0_radial_5_55)"/>
<path d="M141.025 130.503C109.025 132.003 93.0246 101.266 90.5246 98.5029C88.0246 95.7397 88.0246 83.5029 88.0246 83.5029C86.8392 86.6415 85.5246 89.0029 83.5246 88.5029M141.025 130.503C141.025 130.503 146.659 128.51 149.025 125.753C151.659 122.683 149.897 119.706 151.525 116.003C153.777 110.881 158.525 108.003 158.525 103.503C158.525 99.0026 165.513 88.2073 168.025 83.5029C170.536 78.7984 168.025 58.5029 168.025 58.5029M141.025 130.503L139.561 135.503M168.025 58.5029C168.025 58.5029 171.051 47.2742 170.525 40.0029C169.949 32.0562 167.785 23.503 164.525 20.5029C152.026 9.00147 141.735 1.83492 124.525 2.00289C101.939 2.22332 82.3618 13.0541 77.0248 35.0013C74.6676 44.695 78.5246 60.5029 78.5246 60.5029M168.025 58.5029L159.525 42.5029L151.025 33.0029L141.025 38.0029L133.025 33.0029H117.025L106.525 48.0029L96.0246 58.5029C96.0246 58.5029 95.0248 78.5029 92.5246 80.0029C89.191 82.0029 78.5246 60.5029 78.5246 60.5029M78.5246 60.5029C78.5246 60.5029 77.3493 59.675 76.0247 60.5029C72.0248 63.0029 74.0245 71.5029 76.0247 76.5029C78.0248 81.5029 81.0246 88.0029 83.5246 88.5029M83.5246 88.5029V114.003M83.5246 114.003C83.5246 114.003 93.5506 144.814 103.342 163M83.5246 114.003C83.5246 114.003 78.2321 118.672 70.3557 125.753M133.025 167.503C128.794 174.024 126.024 175.003 115.025 176.003C111.717 176.304 107.551 170.819 103.342 163M133.025 167.503C136.557 162.058 133.711 157.359 135.025 151.003C136.301 144.827 139.561 135.503 139.561 135.503M133.025 167.503L139.561 183L148.081 153.5M139.561 135.503C139.561 135.503 143.449 145.302 148.081 153.5M148.081 153.5C149.2 155.482 150.363 157.37 151.525 159.003C161.726 173.346 177.642 172.527 186.025 188.003C192.525 200.003 186.025 287.003 186.025 287.003L162.632 282.003L121.798 255.5H89.729L34 279.17L8.02484 282.003C8.02484 282.003 -0.975293 200.503 3.02484 192.003C7.146 183.246 48.6041 145.306 70.3557 125.753M103.342 163L96.9332 169.501L90.5246 176.003L70.3557 125.753" stroke="#151719" stroke-width="3"/>
<defs>
<radialGradient id="paint0_radial_5_55" cx="0" cy="0" r="1" gradientUnits="userSpaceOnUse" gradientTransform="translate(95.9265 2) rotate(90) scale(262.632 191.613)">
<stop offset="0.454" stop-color="#64170C"/>
<stop offset="1" stop-color="#64170C" stop-opacity="0"/>
</radialGradient>
</defs>
</svg>
