<svg width="36" height="36" viewBox="0 0 36 36" fill="none" xmlns="http://www.w3.org/2000/svg">
<path d="M1.32007 8.60702V1.53595H8.39114L23.9475 17.0923L26.0688 14.971L29.9579 18.8601L27.1295 21.6885L34.5541 31.2344L31.0186 34.77L21.4726 27.3453L18.6442 30.1738L14.7551 26.2847L16.8764 24.1634L1.32007 8.60702Z" fill="#672828"/>
<path d="M23.9475 17.0923L8.39114 1.53595H1.32007V8.60702L16.8764 24.1634M23.9475 17.0923L16.8764 24.1634M23.9475 17.0923L26.0688 14.971L29.9579 18.8601L27.1295 21.6885L34.5541 31.2344L31.0186 34.77L21.4726 27.3453L18.6442 30.1738L14.7551 26.2847L16.8764 24.1634" stroke="#151719" stroke-width="2" stroke-linejoin="round"/>
</svg>
