<svg width="46" height="46" viewBox="0 0 46 46" fill="none" xmlns="http://www.w3.org/2000/svg">
<rect x="1" y="1" width="44" height="44" rx="10" fill="#343238"/>
<rect x="1" y="1" width="44" height="44" rx="10" stroke="#151719" stroke-width="2"/>
<path d="M7.32007 14.607V7.53595H14.3911L29.9475 23.0923L32.0688 20.971L35.9579 24.8601L33.1295 27.6885L40.5541 37.2344L37.0186 40.77L27.4726 33.3453L24.6442 36.1738L20.7551 32.2847L22.8764 30.1634L7.32007 14.607Z" fill="#672828"/>
<path d="M29.9475 23.0923L14.3911 7.53595H7.32007V14.607L22.8764 30.1634M29.9475 23.0923L22.8764 30.1634M29.9475 23.0923L32.0688 20.971L35.9579 24.8601L33.1295 27.6885L40.5541 37.2344L37.0186 40.77L27.4726 33.3453L24.6442 36.1738L20.7551 32.2847L22.8764 30.1634" stroke="#151719" stroke-width="2" stroke-linejoin="round"/>
</svg>
