<svg width="46" height="46" viewBox="0 0 46 46" fill="none" xmlns="http://www.w3.org/2000/svg">
<rect x="1" y="1" width="44" height="44" rx="10" fill="#343238"/>
<rect x="1" y="1" width="44" height="44" rx="10" stroke="#151719" stroke-width="2"/>
<path fill-rule="evenodd" clip-rule="evenodd" d="M15.5 8.98629C14.6003 7.93571 13.0969 7.61104 11.9696 8.57305C10.8423 9.53506 10.6836 11.1435 11.5689 12.2813C12.3049 13.2272 14.5324 15.2224 15.2625 15.8682C15.3441 15.9404 15.385 15.9765 15.4326 15.9907C15.4742 16.0031 15.5197 16.0031 15.5613 15.9907C15.6089 15.9765 15.6497 15.9404 15.7314 15.8682C16.4615 15.2224 18.6889 13.2272 19.425 12.2813C20.3102 11.1435 20.1709 9.52494 19.0242 8.57305C17.8776 7.62116 16.3997 7.93571 15.5 8.98629Z" fill="#892A2A"/>
<path fill-rule="evenodd" clip-rule="evenodd" d="M27.5 15.9863C26.6003 14.9357 25.0969 14.611 23.9696 15.5731C22.8423 16.5351 22.6836 18.1435 23.5689 19.2813C24.3049 20.2272 26.5324 22.2224 27.2625 22.8682C27.3441 22.9404 27.385 22.9765 27.4326 22.9907C27.4742 23.0031 27.5197 23.0031 27.5613 22.9907C27.6089 22.9765 27.6497 22.9404 27.7314 22.8682C28.4615 22.2224 30.6889 20.2272 31.425 19.2813C32.3102 18.1435 32.1709 16.5249 31.0242 15.5731C29.8776 14.6212 28.3997 14.9357 27.5 15.9863Z" fill="#892A2A"/>
<path fill-rule="evenodd" clip-rule="evenodd" d="M12.5 20.9863C11.6003 19.9357 10.0969 19.611 8.96962 20.5731C7.84234 21.5351 7.68363 23.1435 8.56889 24.2813C9.30492 25.2272 11.5324 27.2224 12.2625 27.8682C12.3441 27.9404 12.385 27.9765 12.4326 27.9907C12.4742 28.0031 12.5197 28.0031 12.5613 27.9907C12.6089 27.9765 12.6497 27.9404 12.7314 27.8682C13.4615 27.2224 15.6889 25.2272 16.425 24.2813C17.3102 23.1435 17.1709 21.5249 16.0242 20.5731C14.8776 19.6212 13.3997 19.9357 12.5 20.9863Z" fill="#892A2A"/>
<path d="M20.9317 27V35.8743H19V27H20.9317Z" fill="#892A2A"/>
<path d="M24.9935 36C24.3562 36 23.8085 35.857 23.3502 35.571C22.8946 35.2821 22.5431 34.8806 22.2955 34.3664C22.0506 33.8493 21.9281 33.2499 21.9281 32.5681C21.9281 31.8835 22.0506 31.2841 22.2955 30.7699C22.5431 30.2528 22.8946 29.8512 23.3502 29.5652C23.8085 29.2764 24.3562 29.1319 24.9935 29.1319C25.6308 29.1319 26.1773 29.2764 26.6329 29.5652C27.0911 29.8512 27.4427 30.2528 27.6876 30.7699C27.9352 31.2841 28.0589 31.8835 28.0589 32.5681C28.0589 33.2499 27.9352 33.8493 27.6876 34.3664C27.4427 34.8806 27.0911 35.2821 26.6329 35.571C26.1773 35.857 25.6308 36 24.9935 36ZM25.0054 34.4011C25.2371 34.4011 25.4333 34.3231 25.594 34.1671C25.7546 34.0111 25.8771 33.7944 25.9613 33.5171C26.0483 33.2398 26.0917 32.9191 26.0917 32.5551C26.0917 32.1854 26.0483 31.8618 25.9613 31.5845C25.8771 31.3072 25.7546 31.0905 25.594 30.9345C25.4333 30.7785 25.2371 30.7005 25.0054 30.7005C24.7657 30.7005 24.563 30.7785 24.397 30.9345C24.2338 31.0905 24.1087 31.3072 24.0218 31.5845C23.9375 31.8618 23.8954 32.1854 23.8954 32.5551C23.8954 32.9191 23.9375 33.2398 24.0218 33.5171C24.1087 33.7944 24.2338 34.0111 24.397 34.1671C24.563 34.3231 24.7657 34.4011 25.0054 34.4011Z" fill="#892A2A"/>
<path d="M34.7388 29.2186L32.657 35.8743H30.4449L28.3671 29.2186H30.4014L31.5194 33.8031H31.5826L32.7044 29.2186H34.7388Z" fill="#892A2A"/>
<path fill-rule="evenodd" clip-rule="evenodd" d="M38.1203 36C37.4856 36 36.9378 35.8628 36.4769 35.5883C36.0187 35.311 35.6658 34.9167 35.4183 34.4054C35.1734 33.8912 35.0509 33.2802 35.0509 32.5725C35.0509 31.8849 35.1747 31.2841 35.4222 30.7699C35.6698 30.2528 36.0187 29.8512 36.469 29.5652C36.9194 29.2764 37.45 29.1319 38.061 29.1319C38.4929 29.1319 38.8879 29.2056 39.2461 29.3529C39.6042 29.5002 39.9137 29.7183 40.1744 30.0072C40.4351 30.2961 40.6379 30.6529 40.7827 31.0775C40.9276 31.4993 41 31.9831 41 32.5291V33.0578H36.9549C36.9549 33.3293 37.0037 33.624 37.1011 33.8291C37.1985 34.0313 37.3368 34.1887 37.5159 34.3014C37.6949 34.4141 37.9083 34.4704 38.1558 34.4704C38.327 34.4704 38.4824 34.4444 38.6219 34.3924C38.7615 34.3404 38.8813 34.2638 38.9814 34.1627C39.0815 34.0616 39.1565 33.9374 39.2066 33.7901L40.9802 33.8464C40.9065 34.2826 40.7445 34.6625 40.4944 34.986C40.2468 35.3067 39.9216 35.5566 39.5187 35.7357C39.1157 35.9119 38.6496 36 38.1203 36ZM39.2026 31.8272L36.9549 31.8618C36.9602 31.6336 37.0129 31.4299 37.1129 31.2508C37.213 31.0688 37.3486 30.9259 37.5198 30.8219C37.691 30.715 37.8846 30.6615 38.1005 30.6615C38.3138 30.6615 38.5021 30.7121 38.6654 30.8132C38.8313 30.9114 38.9617 31.0486 39.0565 31.2248C39.1513 31.4011 39.2 31.6018 39.2026 31.8272Z" fill="#892A2A"/>
<path d="M10.7797 12.8954L10.7796 12.8953C9.56234 11.3308 9.79107 9.11757 11.3205 7.81239C12.6496 6.67808 14.2976 6.82638 15.4991 7.65233C16.6966 6.82713 18.325 6.69291 19.6629 7.80363C21.2355 9.10906 21.4227 11.3422 20.2142 12.8953L20.2142 12.8954C19.7914 13.4387 18.9939 14.2248 18.2619 14.9149C17.5107 15.6231 16.7625 16.2912 16.394 16.6172L16.3938 16.6173C16.3914 16.6195 16.3886 16.6219 16.3857 16.6245C16.3539 16.6527 16.2945 16.7054 16.2346 16.7504C16.1574 16.8085 16.0272 16.8954 15.8464 16.9492L15.8464 16.9492C15.6189 17.0169 15.3753 17.017 15.1474 16.9492L10.7797 12.8954ZM10.7797 12.8954C11.2024 13.4387 11.9999 14.2248 12.7319 14.9149M10.7797 12.8954L12.7319 14.9149M27.4991 14.6523C26.2976 13.8264 24.6496 13.6781 23.3205 14.8124C21.7911 16.1176 21.5623 18.3308 22.7796 19.8953L22.7797 19.8954C23.2024 20.4387 23.9999 21.2248 24.7319 21.9149C25.4831 22.623 26.2313 23.2911 26.5998 23.6171C26.6022 23.6193 26.6049 23.6216 26.6078 23.6242C26.6397 23.6525 26.6992 23.7053 26.7593 23.7505C26.8366 23.8086 26.9666 23.8954 27.1472 23.9491L27.4991 14.6523ZM27.4991 14.6523C28.6966 13.8271 30.325 13.6929 31.6629 14.8036C33.2355 16.1091 33.4227 18.3422 32.2142 19.8953L32.2142 19.8954C31.7914 20.4387 30.9939 21.2248 30.2619 21.9149C29.5107 22.6231 28.7625 23.2912 28.394 23.6172L28.3938 23.6173C28.3914 23.6195 28.3887 23.6219 28.3857 23.6245C28.3539 23.6527 28.2945 23.7054 28.2346 23.7504C28.1574 23.8085 28.0272 23.8954 27.8464 23.9492L27.8464 23.9492C27.6189 24.0169 27.3753 24.017 27.1474 23.9492L27.4991 14.6523ZM7.77965 24.8954L7.77964 24.8953C6.56234 23.3308 6.79107 21.1176 8.32047 19.8124C9.64963 18.6781 11.2976 18.8264 12.4991 19.6523C13.6966 18.8271 15.325 18.6929 16.6629 19.8036C18.2355 21.1091 18.4227 23.3421 17.2142 24.8953L17.2142 24.8954C16.7914 25.4387 15.9939 26.2248 15.2619 26.9149C14.5107 27.6231 13.7625 28.2912 13.394 28.6172L13.3938 28.6173C13.3914 28.6195 13.3887 28.6219 13.3857 28.6245C13.3539 28.6527 13.2945 28.7054 13.2346 28.7504C13.1574 28.8085 13.0272 28.8954 12.8464 28.9492L12.8464 28.9492C12.6189 29.0169 12.3753 29.017 12.1474 28.9492L7.77965 24.8954ZM7.77965 24.8954C8.20243 25.4387 8.99994 26.2248 9.73194 26.9149C10.4831 27.6231 11.2314 28.2912 11.5999 28.6172M7.77965 24.8954L11.5999 28.6172M11.5999 28.6172C11.6023 28.6193 11.6049 28.6217 11.6078 28.6242C11.6397 28.6525 11.6992 28.7053 11.7593 28.7505C11.8366 28.8086 11.9666 28.8954 12.1472 28.9491L11.5999 28.6172ZM12.7319 14.9149C13.4831 15.6231 14.2314 16.2912 14.5999 16.6172M12.7319 14.9149L14.5999 16.6172M14.5999 16.6172C14.6023 16.6193 14.605 16.6217 14.6078 16.6242M14.5999 16.6172L14.6078 16.6242M14.6078 16.6242C14.6397 16.6525 14.6992 16.7053 14.7593 16.7505M14.6078 16.6242L14.7593 16.7505M14.7593 16.7505C14.8366 16.8086 14.9666 16.8954 15.1472 16.9491L14.7593 16.7505ZM21.9317 27V26H20.9317H19H18V27V35.8743V36.8743H19H20.9317H21.9317V35.8743V35.6407C22.1819 35.9412 22.4764 36.201 22.8147 36.4156L22.8147 36.4156L22.8208 36.4194C23.4645 36.8211 24.2031 37 24.9935 37C25.7837 37 26.5223 36.8212 27.1646 36.418L27.1662 36.4169C27.7923 36.0222 28.2677 35.4732 28.5896 34.7982C28.6943 34.5794 28.7805 34.3525 28.8491 34.1184L29.4903 36.1723L29.7095 36.8743H30.4449H32.657H33.392L33.6114 36.1729L34.251 34.128C34.32 34.3728 34.4076 34.609 34.5155 34.8354L34.5154 34.8354L34.5182 34.8412C34.8446 35.5153 35.3254 36.0603 35.9592 36.4439L35.9592 36.4439L35.9653 36.4475C36.6072 36.8298 37.3387 37 38.1203 37C38.76 37 39.3671 36.8934 39.9193 36.6519L39.9194 36.6519L39.9248 36.6495C40.4654 36.4092 40.9278 36.0608 41.2854 35.5977C41.6351 35.1455 41.8559 34.6251 41.9584 34.0578H42V33.8135L42.1572 32.8833L42 32.8783V32.5291C42 31.8965 41.9163 31.2994 41.7285 30.7527C41.5466 30.22 41.2807 29.7405 40.9168 29.3372C40.5564 28.938 40.1235 28.6325 39.6265 28.4281C39.1345 28.2257 38.6084 28.1319 38.061 28.1319C37.2928 28.1319 36.5743 28.3142 35.9445 28.7137L36.0994 28.2186H34.7388H32.7044H31.9197L31.7331 28.9809L31.5526 29.7184L31.373 28.9817L31.1869 28.2186H30.4014H28.3671H27.0073L27.163 28.7173C26.5214 28.3121 25.7833 28.1319 24.9935 28.1319C24.2017 28.1319 23.4618 28.313 22.8178 28.7188C22.4777 28.9323 22.1824 29.1922 21.9317 29.4934V27ZM25.0071 33.2181L25.0071 33.218L25.0046 33.2263C25.0003 33.2402 24.9961 33.2532 24.9919 33.2655C24.9871 33.252 24.9822 33.2376 24.9773 33.2221C24.9286 33.06 24.8954 32.8421 24.8954 32.5551C24.8954 32.2607 24.929 32.0403 24.9773 31.8794C24.9822 31.864 24.9871 31.8496 24.9919 31.836C24.9961 31.8483 25.0003 31.8614 25.0046 31.8752L25.0045 31.8753L25.0071 31.8835C25.0567 32.0419 25.0917 32.2606 25.0917 32.5551C25.0917 32.8421 25.0572 33.0583 25.0071 33.2181Z" stroke="#151719" stroke-width="2"/>
</svg>
