<svg width="38" height="32" viewBox="0 0 38 32" fill="none" xmlns="http://www.w3.org/2000/svg">
<path fill-rule="evenodd" clip-rule="evenodd" d="M9.5 2.98629C8.6003 1.93571 7.09689 1.61104 5.96962 2.57305C4.84234 3.53506 4.68363 5.14349 5.56889 6.28127C6.30492 7.22723 8.5324 9.22241 9.26245 9.86818C9.3441 9.94042 9.38495 9.97654 9.4326 9.99072C9.47415 10.0031 9.51965 10.0031 9.56125 9.99072C9.6089 9.97654 9.6497 9.94042 9.7314 9.86818C10.4615 9.22241 12.6889 7.22723 13.425 6.28127C14.3102 5.14349 14.1709 3.52494 13.0242 2.57305C11.8776 1.62116 10.3997 1.93571 9.5 2.98629Z" fill="#892A2A"/>
<path fill-rule="evenodd" clip-rule="evenodd" d="M21.5 9.98629C20.6003 8.93571 19.0969 8.61104 17.9696 9.57305C16.8423 10.5351 16.6836 12.1435 17.5689 13.2813C18.3049 14.2272 20.5324 16.2224 21.2625 16.8682C21.3441 16.9404 21.385 16.9765 21.4326 16.9907C21.4742 17.0031 21.5197 17.0031 21.5613 16.9907C21.6089 16.9765 21.6497 16.9404 21.7314 16.8682C22.4615 16.2224 24.6889 14.2272 25.425 13.2813C26.3102 12.1435 26.1709 10.5249 25.0242 9.57305C23.8776 8.62116 22.3997 8.93571 21.5 9.98629Z" fill="#892A2A"/>
<path fill-rule="evenodd" clip-rule="evenodd" d="M6.5 14.9863C5.6003 13.9357 4.09689 13.611 2.96962 14.5731C1.84234 15.5351 1.68363 17.1435 2.56889 18.2813C3.30492 19.2272 5.5324 21.2224 6.26245 21.8682C6.3441 21.9404 6.38495 21.9765 6.4326 21.9907C6.47415 22.0031 6.51965 22.0031 6.56125 21.9907C6.6089 21.9765 6.6497 21.9404 6.7314 21.8682C7.46146 21.2224 9.68891 19.2272 10.425 18.2813C11.3102 17.1435 11.1709 15.5249 10.0242 14.5731C8.87756 13.6212 7.39971 13.9357 6.5 14.9863Z" fill="#892A2A"/>
<path d="M14.9317 21V29.8743H13V21H14.9317Z" fill="#892A2A"/>
<path d="M18.9935 30C18.3562 30 17.8085 29.857 17.3502 29.571C16.8946 29.2821 16.5431 28.8806 16.2955 28.3664C16.0506 27.8493 15.9281 27.2499 15.9281 26.5681C15.9281 25.8835 16.0506 25.2841 16.2955 24.7699C16.5431 24.2528 16.8946 23.8512 17.3502 23.5652C17.8085 23.2764 18.3562 23.1319 18.9935 23.1319C19.6308 23.1319 20.1773 23.2764 20.6329 23.5652C21.0911 23.8512 21.4427 24.2528 21.6876 24.7699C21.9352 25.2841 22.0589 25.8835 22.0589 26.5681C22.0589 27.2499 21.9352 27.8493 21.6876 28.3664C21.4427 28.8806 21.0911 29.2821 20.6329 29.571C20.1773 29.857 19.6308 30 18.9935 30ZM19.0054 28.4011C19.2371 28.4011 19.4333 28.3231 19.594 28.1671C19.7546 28.0111 19.8771 27.7944 19.9613 27.5171C20.0483 27.2398 20.0917 26.9191 20.0917 26.5551C20.0917 26.1854 20.0483 25.8618 19.9613 25.5845C19.8771 25.3072 19.7546 25.0905 19.594 24.9345C19.4333 24.7785 19.2371 24.7005 19.0054 24.7005C18.7657 24.7005 18.563 24.7785 18.397 24.9345C18.2338 25.0905 18.1087 25.3072 18.0218 25.5845C17.9375 25.8618 17.8954 26.1854 17.8954 26.5551C17.8954 26.9191 17.9375 27.2398 18.0218 27.5171C18.1087 27.7944 18.2338 28.0111 18.397 28.1671C18.563 28.3231 18.7657 28.4011 19.0054 28.4011Z" fill="#892A2A"/>
<path d="M28.7388 23.2186L26.657 29.8743H24.4449L22.3671 23.2186H24.4014L25.5194 27.8031H25.5826L26.7044 23.2186H28.7388Z" fill="#892A2A"/>
<path fill-rule="evenodd" clip-rule="evenodd" d="M32.1203 30C31.4856 30 30.9378 29.8628 30.4769 29.5883C30.0187 29.311 29.6658 28.9167 29.4183 28.4054C29.1734 27.8912 29.0509 27.2802 29.0509 26.5725C29.0509 25.8849 29.1747 25.2841 29.4222 24.7699C29.6698 24.2528 30.0187 23.8512 30.469 23.5652C30.9194 23.2764 31.45 23.1319 32.061 23.1319C32.4929 23.1319 32.8879 23.2056 33.2461 23.3529C33.6042 23.5002 33.9137 23.7183 34.1744 24.0072C34.4351 24.2961 34.6379 24.6529 34.7827 25.0775C34.9276 25.4993 35 25.9831 35 26.5291V27.0578H30.9549C30.9549 27.3293 31.0037 27.624 31.1011 27.8291C31.1985 28.0313 31.3368 28.1887 31.5159 28.3014C31.6949 28.4141 31.9083 28.4704 32.1558 28.4704C32.327 28.4704 32.4824 28.4444 32.6219 28.3924C32.7615 28.3404 32.8813 28.2638 32.9814 28.1627C33.0815 28.0616 33.1565 27.9374 33.2066 27.7901L34.9802 27.8464C34.9065 28.2826 34.7445 28.6625 34.4944 28.986C34.2468 29.3067 33.9216 29.5566 33.5187 29.7357C33.1157 29.9119 32.6496 30 32.1203 30ZM33.2026 25.8272L30.9549 25.8618C30.9602 25.6336 31.0129 25.4299 31.1129 25.2508C31.213 25.0688 31.3486 24.9259 31.5198 24.8219C31.691 24.715 31.8846 24.6615 32.1005 24.6615C32.3138 24.6615 32.5021 24.7121 32.6654 24.8132C32.8313 24.9114 32.9617 25.0486 33.0565 25.2248C33.1513 25.4011 33.2 25.6018 33.2026 25.8272Z" fill="#892A2A"/>
<path d="M4.77965 6.89536L4.77964 6.89535C3.56234 5.33079 3.79107 3.11757 5.32047 1.81239C6.64963 0.678083 8.29763 0.826376 9.49914 1.65233C10.6966 0.827128 12.325 0.692912 13.6629 1.80363C15.2355 3.10906 15.4227 5.34215 14.2142 6.89535L14.2142 6.89537C13.7914 7.43872 12.9939 8.22483 12.2619 8.91492C11.5107 9.62309 10.7625 10.2912 10.394 10.6172L10.3938 10.6173C10.3914 10.6195 10.3886 10.6219 10.3857 10.6245C10.3539 10.6527 10.2945 10.7054 10.2346 10.7504C10.1574 10.8085 10.0272 10.8954 9.84644 10.9492L9.84637 10.9492C9.61891 11.0169 9.37525 11.017 9.14742 10.9492L4.77965 6.89536ZM4.77965 6.89536C5.20243 7.43872 5.99994 8.22483 6.73194 8.91493M4.77965 6.89536L6.73194 8.91493M21.4991 8.65233C20.2976 7.82638 18.6496 7.67808 17.3205 8.81239C15.7911 10.1176 15.5623 12.3308 16.7796 13.8953L16.7797 13.8954C17.2024 14.4387 17.9999 15.2248 18.7319 15.9149C19.4831 16.623 20.2313 17.2911 20.5998 17.6171C20.6022 17.6193 20.6049 17.6216 20.6078 17.6242C20.6397 17.6525 20.6992 17.7053 20.7593 17.7505C20.8366 17.8086 20.9666 17.8954 21.1472 17.9491L21.4991 8.65233ZM21.4991 8.65233C22.6966 7.82713 24.325 7.69291 25.6629 8.80363C27.2355 10.1091 27.4227 12.3422 26.2142 13.8953L26.2142 13.8954C25.7914 14.4387 24.9939 15.2248 24.2619 15.9149C23.5107 16.6231 22.7625 17.2912 22.394 17.6172L22.3938 17.6173C22.3914 17.6195 22.3887 17.6219 22.3857 17.6245C22.3539 17.6527 22.2945 17.7054 22.2346 17.7504C22.1574 17.8085 22.0272 17.8954 21.8464 17.9492L21.8464 17.9492C21.6189 18.0169 21.3753 18.017 21.1474 17.9492L21.4991 8.65233ZM1.77965 18.8954L1.77964 18.8953C0.56234 17.3308 0.791073 15.1176 2.32047 13.8124C3.64963 12.6781 5.29763 12.8264 6.49914 13.6523C7.69657 12.8271 9.32498 12.6929 10.6629 13.8036C12.2355 15.1091 12.4227 17.3421 11.2142 18.8953L11.2142 18.8954C10.7914 19.4387 9.9939 20.2248 9.26191 20.9149C8.51074 21.6231 7.76248 22.2912 7.39395 22.6172L7.39382 22.6173C7.39137 22.6195 7.38866 22.6219 7.38571 22.6245C7.35389 22.6527 7.29452 22.7054 7.23464 22.7504C7.15739 22.8085 7.02723 22.8954 6.84644 22.9492L6.84637 22.9492C6.61891 23.0169 6.37525 23.017 6.14742 22.9492L1.77965 18.8954ZM1.77965 18.8954C2.20243 19.4387 2.99994 20.2248 3.73194 20.9149C4.48312 21.6231 5.23138 22.2912 5.59991 22.6172M1.77965 18.8954L5.59991 22.6172M5.59991 22.6172C5.6023 22.6193 5.60493 22.6217 5.60779 22.6242C5.63969 22.6525 5.69917 22.7053 5.75929 22.7505C5.8366 22.8086 5.96663 22.8954 6.14718 22.9491L5.59991 22.6172ZM6.73194 8.91493C7.48312 9.6231 8.23138 10.2912 8.59991 10.6172M6.73194 8.91493L8.59991 10.6172M8.59991 10.6172C8.60231 10.6193 8.60496 10.6217 8.60783 10.6242M8.59991 10.6172L8.60783 10.6242M8.60783 10.6242C8.63974 10.6525 8.69919 10.7053 8.75928 10.7505M8.60783 10.6242L8.75928 10.7505M8.75928 10.7505C8.83659 10.8086 8.96663 10.8954 9.14718 10.9491L8.75928 10.7505ZM15.9317 21V20H14.9317H13H12V21V29.8743V30.8743H13H14.9317H15.9317V29.8743V29.6407C16.1819 29.9412 16.4764 30.201 16.8147 30.4156L16.8147 30.4156L16.8208 30.4194C17.4645 30.8211 18.2031 31 18.9935 31C19.7837 31 20.5223 30.8212 21.1646 30.418L21.1662 30.4169C21.7923 30.0222 22.2677 29.4732 22.5896 28.7982C22.6943 28.5794 22.7805 28.3525 22.8491 28.1184L23.4903 30.1723L23.7095 30.8743H24.4449H26.657H27.392L27.6114 30.1729L28.251 28.128C28.32 28.3728 28.4076 28.609 28.5155 28.8354L28.5154 28.8354L28.5182 28.8412C28.8446 29.5153 29.3254 30.0603 29.9592 30.4439L29.9592 30.4439L29.9653 30.4475C30.6072 30.8298 31.3387 31 32.1203 31C32.76 31 33.3671 30.8934 33.9193 30.6519L33.9194 30.6519L33.9248 30.6495C34.4654 30.4092 34.9278 30.0608 35.2854 29.5977C35.6351 29.1455 35.8559 28.6251 35.9584 28.0578H36V27.8135L36.1572 26.8833L36 26.8783V26.5291C36 25.8965 35.9163 25.2994 35.7285 24.7527C35.5466 24.22 35.2807 23.7405 34.9168 23.3372C34.5564 22.938 34.1235 22.6325 33.6265 22.4281C33.1345 22.2257 32.6084 22.1319 32.061 22.1319C31.2928 22.1319 30.5743 22.3142 29.9445 22.7137L30.0994 22.2186H28.7388H26.7044H25.9197L25.7331 22.9809L25.5526 23.7184L25.373 22.9817L25.1869 22.2186H24.4014H22.3671H21.0073L21.163 22.7173C20.5214 22.3121 19.7833 22.1319 18.9935 22.1319C18.2017 22.1319 17.4618 22.313 16.8178 22.7188C16.4777 22.9323 16.1824 23.1922 15.9317 23.4934V21ZM19.0071 27.2181L19.0071 27.218L19.0046 27.2263C19.0003 27.2402 18.9961 27.2532 18.9919 27.2655C18.9871 27.252 18.9822 27.2376 18.9773 27.2221C18.9286 27.06 18.8954 26.8421 18.8954 26.5551C18.8954 26.2607 18.929 26.0403 18.9773 25.8794C18.9822 25.864 18.9871 25.8496 18.9919 25.836C18.9961 25.8483 19.0003 25.8614 19.0046 25.8752L19.0045 25.8753L19.0071 25.8835C19.0567 26.0419 19.0917 26.2606 19.0917 26.5551C19.0917 26.8421 19.0572 27.0583 19.0071 27.2181Z" stroke="#151719" stroke-width="2"/>
</svg>
