<svg width="192" height="264" viewBox="0 0 192 264" fill="none" xmlns="http://www.w3.org/2000/svg">
<path d="M142.838 108.569C142.838 108.569 140.043 117.643 136.796 122.681C134.461 126.303 129.747 131.169 129.747 131.169V145.069C129.747 145.069 131.274 146.79 132.264 147.882C135.722 151.697 138.505 153.15 141.327 157.458C144.032 161.586 146.362 169.05 146.362 169.05C146.434 170.193 146.52 171.587 146.612 173.082C162.835 187.057 181.473 188.524 188.152 208.867C194.859 229.294 175.726 262.5 175.726 262.5H21.226C21.226 262.5 -0.431091 220.374 2.22591 208.867C8.33802 182.397 24.1532 179.046 50.6979 158.97L54.2224 143.85C58.3274 138.895 61.0478 137.279 66.3064 135.534V122.177C63.9664 115.028 63.4076 110.293 63.2854 101.009C63.2854 101.009 54.2224 96.92 54.2224 90.4246V73.7923C54.2224 67.297 57.2434 67.7442 57.2434 67.7442C57.2434 67.7442 54.9731 48.5352 59.2574 37.5036C62.34 29.5662 65.3428 25.3982 71.3413 19.3593C75.9997 14.6695 79.1696 12.5075 84.9357 9.27907C91.0224 5.87118 94.6796 3.91976 101.551 2.72695C111.307 1.03337 117.406 2.40352 126.726 5.75101C134.693 8.61243 138.867 11.3977 145.355 16.8392C152.09 22.4883 156.104 26.0701 159.957 33.9756C163.156 40.5401 165.112 44.8427 164.488 52.1199C163.819 59.9274 157.215 62.5347 155.929 70.2643C155.153 74.9239 155.929 82.3605 155.929 82.3605C155.929 82.3605 156.219 87.2888 155.929 90.4246C155.423 95.8913 156.169 100.041 152.404 104.033C149.566 107.042 142.838 108.569 142.838 108.569Z" fill="url(#paint0_radial_5_61)"/>
<path d="M142.838 108.569C142.838 108.569 140.043 117.643 136.796 122.681C134.461 126.303 129.747 131.169 129.747 131.169M142.838 108.569C142.838 108.569 149.566 107.042 152.404 104.033C156.169 100.041 155.423 95.8913 155.929 90.4246C156.219 87.2888 155.929 82.3605 155.929 82.3605M142.838 108.569L145.355 101.009L145.621 100.178M155.929 82.3605C155.929 82.3605 155.153 74.9239 155.929 70.2643C157.215 62.5347 163.819 59.9274 164.488 52.1199C165.112 44.8427 163.156 40.5401 159.957 33.9756C156.104 26.0701 152.09 22.4883 145.355 16.8392C138.867 11.3977 134.693 8.61243 126.726 5.75101C117.406 2.40352 111.307 1.03337 101.551 2.72695C94.6796 3.91976 91.0224 5.87118 84.9357 9.27907C79.1696 12.5075 75.9997 14.6695 71.3413 19.3593C65.3428 25.3982 62.34 29.5662 59.2574 37.5036C54.9731 48.5352 57.2434 67.7442 57.2434 67.7442M155.929 82.3605C155.929 82.3605 151.377 85.5547 149.383 88.4086C146.621 92.3636 145.621 100.178 145.621 100.178M57.2434 67.7442C57.2434 67.7442 54.2224 67.297 54.2224 73.7923C54.2224 80.2876 54.2224 83.9293 54.2224 90.4246C54.2224 96.92 63.2854 101.009 63.2854 101.009M57.2434 67.7442C58.8546 69.7602 61.9427 74.6323 63.2854 76.8164M63.2854 101.009C63.4075 110.293 63.9664 115.028 66.3064 122.177M63.2854 101.009C63.2854 98.6568 63.2854 93.6503 63.2854 92.4407C63.2854 91.2311 63.2854 81.5205 63.2854 76.8164M66.3064 122.177C76.4872 136.119 83.7913 144.577 99.5371 145.069C112.515 145.475 119.958 141.723 129.747 131.169M66.3064 122.177V135.534M66.3064 148.89C70.5532 150.762 72.8281 152.44 75.8728 155.946C78.8174 159.336 78.1126 162.98 81.4112 166.026C83.7415 168.178 88.4602 170.058 88.4602 170.058M66.3064 148.89C66.3064 144.953 66.3064 138.81 66.3064 138.81M66.3064 148.89C63.5536 146.922 59.2574 147.236 59.2574 143.85C59.2574 140.463 66.3064 138.81 66.3064 138.81M129.747 131.169V145.069M101.551 177.618C99.1916 177.618 95.5091 177.618 95.5091 177.618M101.551 177.618C109.865 176.929 114.524 176.263 122.698 174.594C129.66 173.173 133.438 171.83 140.32 170.058M101.551 177.618C103.124 175.355 104.006 174.086 105.579 171.822M95.5091 177.618L88.4602 170.058M95.5091 177.618C95.5091 177.618 79.7248 177.77 71.3413 173.082C65.8669 170.021 59.2574 162.498 59.2574 162.498L57.2434 159.46M88.4602 170.058C88.4602 170.058 81.7578 168.598 78.3903 166.026C74.5736 163.112 75.4823 158.376 71.3413 155.946C68.5438 154.304 66.4261 153.122 63.2854 153.93C60.189 154.727 57.2434 159.46 57.2434 159.46M66.3064 135.534C61.0478 137.279 58.3274 138.895 54.2224 143.85C54.2224 143.85 52.0743 153.065 50.6979 158.97M66.3064 135.534V138.81M50.6979 158.97C44.9957 165.072 36.0965 174.594 36.0965 174.594C46.2395 172.307 50.5818 168.439 57.2434 159.46M50.6979 158.97C24.1532 179.046 8.33802 182.397 2.22591 208.867C-0.431091 220.374 21.226 262.5 21.226 262.5H175.726C175.726 262.5 194.859 229.294 188.152 208.867C181.473 188.524 162.835 187.057 146.612 173.082M140.32 170.058C139.337 168.484 139.022 167.425 137.803 166.026C136.329 164.335 135.39 163.233 133.271 162.498C130.064 161.385 128.025 163.271 124.712 164.01C119.914 165.08 117.071 165.433 112.628 167.538C109.717 168.918 108.332 170.149 105.579 171.822M140.32 170.058C142.09 177.538 144.852 189.211 144.852 189.211L147.369 186.187C147.369 185.551 146.953 178.624 146.612 173.082M105.579 171.822C106.792 169.347 107.71 168.026 109.607 166.026C115.345 159.977 129.747 158.97 129.747 158.97V145.069M129.747 145.069C129.747 145.069 131.274 146.79 132.264 147.882C135.722 151.697 138.505 153.15 141.327 157.458C144.032 161.586 146.362 169.05 146.362 169.05C146.434 170.193 146.52 171.587 146.612 173.082M63.2854 76.8164L66.3064 63.2081C70.031 58.5964 72.8518 49.5999 72.8518 49.5999C72.8518 49.5999 84.4176 42.3652 88.4602 33.9756C104.293 36.005 112.916 35.4926 126.726 24.3994C131.811 34.9616 134.013 41.331 145.355 47.5838C149.771 68.116 148.631 79.6339 145.621 100.178M87.5 128.886C81.7883 121.654 78.3903 112 78.3903 112C78.3903 112 87.8787 111.21 99.5371 112C110.432 112.738 122.698 117.5 122.698 117.5C122.698 117.5 118.059 125.502 111.661 131.169M87.5 128.886C90.807 133.074 94.8895 136.449 99.5371 136.669C103.795 136.87 108.014 134.399 111.661 131.169M87.5 128.886C96.0571 124.659 101.149 124.001 111.661 131.169" stroke="#151719" stroke-width="3"/>
<defs>
<radialGradient id="paint0_radial_5_61" cx="0" cy="0" r="1" gradientUnits="userSpaceOnUse" gradientTransform="translate(96.2604 2) rotate(90) scale(240.052 192.294)">
<stop offset="0.454" stop-color="#343238"/>
<stop offset="1" stop-color="#343238" stop-opacity="0"/>
</radialGradient>
</defs>
</svg>
