<svg width="198" height="279" viewBox="0 0 198 279" fill="none" xmlns="http://www.w3.org/2000/svg">
<path d="M38.4999 55.3852C39.3536 43.5312 38.4999 37.8852 43.4999 25.366C49.0368 15.7982 54.4229 10.93 64.4999 6.38524C78.0277 0.284225 88.752 0.797919 102.5 6.38524C111 9.83975 126.871 22.8252 129.5 33.3852C132.129 43.9453 125 59.8852 125 59.8852C125 59.8852 131.225 63.839 133 67.8852C135.799 74.2678 133.574 79.7305 129.5 85.3852C127.234 88.5299 122 91.8852 122 91.8852L124.262 114.885C128.791 123.32 131.156 127.758 137 138.385C142.887 141.49 145.715 144.079 148.699 152.385C160.799 158.052 176.66 158.503 186.5 171.885C192.154 179.575 193.414 185.342 195.436 194.593L195.5 194.885C197.56 204.308 182.5 277.385 182.5 277.385L15.4999 271.885C15.4999 271.885 -5.12198 204.906 4.99994 194.885C15.1219 184.864 24.9999 182.885 35.4999 174.885C44.4999 166.385 49.0999 155.185 51.4999 152.385L61.9999 134.385L54.9999 118.385C54.9999 118.385 49.3139 114.251 48.4999 110.885C45.738 99.4649 41.1629 89.1204 38.4999 78.8852C35.837 68.65 36.7127 63.8526 38.4999 55.3852Z" fill="url(#paint0_radial_5_59)"/>
<path d="M43.4999 25.366C38.4999 37.8852 39.3536 43.5312 38.4999 55.3852C36.7127 63.8526 35.837 68.65 38.4999 78.8852C41.1629 89.1204 45.738 99.4649 48.4999 110.885C49.3139 114.251 54.9999 118.385 54.9999 118.385M43.4999 25.366C49.0368 15.7982 54.4229 10.93 64.4999 6.38524C78.0277 0.284225 88.752 0.797919 102.5 6.38524C111 9.83975 126.871 22.8252 129.5 33.3852C132.129 43.9453 125 59.8852 125 59.8852M43.4999 25.366C53.6064 26.2938 59.3871 25.2646 69.9999 19.3852C80.6127 13.5059 89.6225 11.1003 96.4999 13.8852C109.052 18.9681 106.337 32.6712 111 45.3852C114.51 54.9549 118.5 70.3852 118.5 70.3852L125 59.8852M122 91.8852L118.5 85.3852C118.5 85.3852 114.878 96.8315 111 103.385C108.156 108.191 106.736 111.246 102.5 114.885C94.7688 121.528 87.6332 121.283 77.4999 122.385C71.4823 123.04 67.4434 125.033 61.9999 122.385C58.8859 120.871 54.9999 118.385 54.9999 118.385M122 91.8852C122 91.8852 127.234 88.5299 129.5 85.3852C133.574 79.7305 135.799 74.2678 133 67.8852C131.225 63.839 125 59.8852 125 59.8852M122 91.8852L124.262 114.885M80.7499 184.885C101.303 167.445 115.996 146.014 125 122.385L124.262 114.885M80.7499 184.885L74.4999 194.885M80.7499 184.885C80.7499 184.885 95.1243 174.245 104.5 174.885C112.994 175.465 118.5 184.885 118.5 184.885L120.688 179.385M74.4999 194.885C74.4999 194.885 66.4091 182.972 61.9999 174.885C57.3581 166.372 51.4999 152.385 51.4999 152.385M74.4999 194.885C74.4999 194.885 50.1446 182.11 35.4999 174.885M51.4999 152.385L61.9999 134.385L54.9999 118.385M51.4999 152.385C49.0999 155.185 44.4999 166.385 35.4999 174.885M124.262 114.885C128.791 123.32 131.156 127.758 137 138.385M137 138.385C142.887 141.49 145.715 144.079 148.699 152.385M137 138.385C132.331 155.341 128.609 164.236 120.688 179.385M148.699 152.385L145.5 194.885L120.688 179.385M148.699 152.385C160.799 158.052 176.66 158.503 186.5 171.885C192.214 179.656 193.44 185.462 195.5 194.885C197.56 204.308 182.5 277.385 182.5 277.385L15.4999 271.885C15.4999 271.885 -5.12198 204.906 4.99994 194.885C15.1219 184.864 24.9999 182.885 35.4999 174.885" stroke="#151719" stroke-width="3"/>
<defs>
<radialGradient id="paint0_radial_5_59" cx="0" cy="0" r="1" gradientUnits="userSpaceOnUse" gradientTransform="translate(99.4352 2) rotate(90) scale(253.769 198.354)">
<stop offset="0.454" stop-color="#343238"/>
<stop offset="1" stop-color="#343238" stop-opacity="0"/>
</radialGradient>
</defs>
</svg>
