<svg width="197" height="279" viewBox="0 0 197 279" fill="none" xmlns="http://www.w3.org/2000/svg">
<path d="M38.2954 55.3852C39.149 43.5312 38.2954 37.8852 43.2953 25.366C48.8322 15.7982 54.2183 10.93 64.2953 6.38524C77.8231 0.284225 88.5474 0.797919 102.295 6.38524C110.795 9.83975 126.667 22.8252 129.295 33.3852C131.924 43.9453 124.795 59.8852 124.795 59.8852C124.795 59.8852 131.021 63.839 132.795 67.8852C135.595 74.2678 133.369 79.7305 129.295 85.3852C127.03 88.5299 121.795 91.8852 121.795 91.8852L124.058 114.885C128.587 123.32 130.952 127.758 136.795 138.385C142.683 141.49 145.51 144.079 148.494 152.385C160.595 158.052 176.456 158.503 186.295 171.885C191.95 179.575 193.21 185.342 195.231 194.593L195.295 194.885C197.355 204.308 182.295 277.385 182.295 277.385L15.2954 271.885C15.2954 271.885 -5.32657 204.906 4.79535 194.885C14.9173 184.864 24.7954 182.885 35.2954 174.885C44.2954 166.385 48.8953 155.185 51.2953 152.385L61.7953 134.385L54.7953 118.385C54.7953 118.385 49.1093 114.251 48.2953 110.885C45.5335 99.4649 40.9583 89.1204 38.2954 78.8852C35.6324 68.65 36.5081 63.8526 38.2954 55.3852Z" fill="url(#paint0_radial_5_59)"/>
<path d="M43.2953 25.366C38.2954 37.8852 39.149 43.5312 38.2954 55.3852C36.5081 63.8526 35.6324 68.65 38.2954 78.8852C40.9583 89.1204 45.5334 99.4649 48.2953 110.885C49.1093 114.251 54.7953 118.385 54.7953 118.385M43.2953 25.366C48.8322 15.7982 54.2183 10.93 64.2953 6.38524C77.8231 0.284225 88.5474 0.797919 102.295 6.38524C110.795 9.83975 126.667 22.8252 129.295 33.3852C131.924 43.9453 124.795 59.8852 124.795 59.8852M43.2953 25.366C53.4018 26.2938 59.1825 25.2646 69.7953 19.3852C80.4081 13.5059 89.4179 11.1003 96.2953 13.8852C108.848 18.9681 106.132 32.6712 110.795 45.3852C114.305 54.9549 118.295 70.3852 118.295 70.3852L124.795 59.8852M121.795 91.8852L118.295 85.3852C118.295 85.3852 114.674 96.8315 110.795 103.385C107.951 108.191 106.531 111.246 102.295 114.885C94.5642 121.528 87.4286 121.283 77.2953 122.385C71.2777 123.04 67.2388 125.033 61.7953 122.385C58.6813 120.871 54.7953 118.385 54.7953 118.385M121.795 91.8852C121.795 91.8852 127.03 88.5299 129.295 85.3852C133.369 79.7305 135.595 74.2678 132.795 67.8852C131.021 63.839 124.795 59.8852 124.795 59.8852M121.795 91.8852L124.058 114.885M80.5453 184.885C101.098 167.445 115.791 146.014 124.795 122.385L124.058 114.885M80.5453 184.885L74.2953 194.885M80.5453 184.885C80.5453 184.885 94.9197 174.245 104.295 174.885C112.789 175.465 118.295 184.885 118.295 184.885L120.484 179.385M74.2953 194.885C74.2953 194.885 66.2045 182.972 61.7953 174.885C57.1536 166.372 51.2953 152.385 51.2953 152.385M74.2953 194.885C74.2953 194.885 49.94 182.11 35.2954 174.885M51.2953 152.385L61.7953 134.385L54.7953 118.385M51.2953 152.385C48.8953 155.185 44.2954 166.385 35.2954 174.885M124.058 114.885C128.587 123.32 130.952 127.758 136.795 138.385M136.795 138.385C142.683 141.49 145.51 144.079 148.494 152.385M136.795 138.385C132.127 155.341 128.404 164.236 120.484 179.385M148.494 152.385L145.295 194.885L120.484 179.385M148.494 152.385C160.595 158.052 176.456 158.503 186.295 171.885C192.009 179.656 193.236 185.462 195.295 194.885C197.355 204.308 182.295 277.385 182.295 277.385L15.2954 271.885C15.2954 271.885 -5.32657 204.906 4.79535 194.885C14.9173 184.864 24.7954 182.885 35.2954 174.885" stroke="#151719" stroke-width="3"/>
<defs>
<radialGradient id="paint0_radial_5_59" cx="0" cy="0" r="1" gradientUnits="userSpaceOnUse" gradientTransform="translate(99.2306 2) rotate(90) scale(253.769 198.354)">
<stop offset="0.454" stop-color="#CF3636"/>
<stop offset="1" stop-color="#343238" stop-opacity="0"/>
<stop offset="1.0001" stop-color="#CF3636" stop-opacity="0"/>
</radialGradient>
</defs>
</svg>
