<svg width="216" height="269" viewBox="0 0 216 269" fill="none" xmlns="http://www.w3.org/2000/svg">
<path d="M61.9301 122.681C58.6826 117.643 55.8881 108.569 55.8881 108.569C55.8881 108.569 49.1594 107.042 46.3217 104.033C42.5568 100.041 43.3027 95.8913 42.7972 90.4246C42.5072 87.2888 42.7972 82.3605 42.7972 82.3605C42.7972 82.3605 43.5727 74.9239 42.7972 70.2643C41.5108 62.5347 34.9066 59.9274 34.2378 52.1199C33.6144 44.8427 35.5704 40.5401 38.7692 33.9756C42.6215 26.0701 46.6355 22.4883 53.3706 16.8392C59.8584 11.3977 64.0332 8.61243 72 5.75101C81.3201 2.40352 87.4185 1.03337 97.1748 2.72695C104.046 3.91976 107.704 5.87118 113.79 9.27907C119.556 12.5075 122.726 14.6695 127.385 19.3593C133.383 25.3982 136.386 29.5662 139.469 37.5036C143.753 48.5352 141.483 67.7442 141.483 67.7442C141.483 67.7442 144.504 67.297 144.504 73.7923V90.4246C144.504 96.92 135.441 101.009 135.441 101.009C135.318 110.293 134.76 115.028 132.42 122.177V135.534C137.678 137.279 140.399 138.895 144.504 143.85L148.028 158.97L216 210.379V240.62H200.895V253.724H188.811V247.676H179.245V263.3H166.657V258.26H155.077V236.587H141.483V267.332C141.483 268.542 135.441 267.836 132.42 267.332V253.724H122.35V267.332H118.825V258.26H112.28V260.78H105.734V238.604V233.059L103.217 230.539V224.491H99.1888L93.1469 230.539V242.636H86.0979V247.676H76.028V263.3H69.986V256.244H66.965V253.724H63.4406L60.9231 256.244H58.4056L55.8881 253.724H45.8182V260.78H43.3007V265.82H39.2727V244.148H35.7483V234.067H23.6643L22.1538 253.724H16.1119V244.148L10.5734 238.604L0 234.067L10.5734 208.867L52.1138 173.082C52.2058 171.587 52.2923 170.193 52.3636 169.05C52.3636 169.05 54.694 161.586 57.3986 157.458C60.221 153.15 63.0037 151.697 66.4615 147.882C67.4514 146.79 68.979 145.069 68.979 145.069V131.169C68.979 131.169 64.2646 126.303 61.9301 122.681Z" fill="url(#paint0_radial_5_51)"/>
<path d="M55.8881 108.569C55.8881 108.569 58.6826 117.643 61.9301 122.681C64.2646 126.303 68.979 131.169 68.979 131.169M55.8881 108.569C55.8881 108.569 49.1594 107.042 46.3217 104.033C42.5568 100.041 43.3027 95.8913 42.7972 90.4246C42.5072 87.2888 42.7972 82.3605 42.7972 82.3605M55.8881 108.569L53.3706 101.009L53.105 100.178M42.7972 82.3605C42.7972 82.3605 43.5727 74.9239 42.7972 70.2643C41.5108 62.5347 34.9066 59.9274 34.2378 52.1199C33.6144 44.8427 35.5704 40.5401 38.7692 33.9756C42.6215 26.0701 46.6355 22.4883 53.3706 16.8392C59.8584 11.3977 64.0332 8.61243 72 5.75101C81.3201 2.40352 87.4185 1.03337 97.1748 2.72695C104.046 3.91976 107.704 5.87118 113.79 9.27907C119.556 12.5075 122.726 14.6695 127.385 19.3593C133.383 25.3982 136.386 29.5662 139.469 37.5036C143.753 48.5352 141.483 67.7442 141.483 67.7442M42.7972 82.3605C42.7972 82.3605 47.3494 85.5547 49.3427 88.4086C52.105 92.3636 53.105 100.178 53.105 100.178M141.483 67.7442C141.483 67.7442 144.504 67.297 144.504 73.7923C144.504 80.2876 144.504 83.9293 144.504 90.4246C144.504 96.92 135.441 101.009 135.441 101.009M141.483 67.7442C139.871 69.7602 136.783 74.6323 135.441 76.8164M135.441 101.009C135.318 110.293 134.76 115.028 132.42 122.177M135.441 101.009C135.441 98.6568 135.441 93.6503 135.441 92.4407C135.441 91.2311 135.441 81.5205 135.441 76.8164M132.42 122.177C122.239 136.119 114.935 144.577 99.1888 145.069C86.2108 145.475 78.7676 141.723 68.979 131.169M132.42 122.177V135.534M132.42 148.89C128.173 150.762 125.898 152.44 122.853 155.946C119.909 159.336 120.613 162.98 117.315 166.026C114.984 168.178 110.266 170.058 110.266 170.058M132.42 148.89C132.42 144.953 132.42 138.81 132.42 138.81M132.42 148.89C135.172 146.922 139.469 147.236 139.469 143.85C139.469 140.463 132.42 138.81 132.42 138.81M68.979 131.169V145.069M97.1748 177.618C99.5344 177.618 103.217 177.618 103.217 177.618M97.1748 177.618C88.8611 176.929 84.2019 176.263 76.028 174.594C69.0655 173.173 65.2876 171.83 58.4056 170.058M97.1748 177.618C95.6018 175.355 94.7199 174.086 93.1469 171.822M103.217 177.618L110.266 170.058M103.217 177.618C103.217 177.618 119.001 177.77 127.385 173.082C132.859 170.021 139.469 162.498 139.469 162.498L141.483 159.46M110.266 170.058C110.266 170.058 116.968 168.598 120.336 166.026C124.152 163.112 123.244 158.376 127.385 155.946C130.182 154.304 132.3 153.122 135.441 153.93C138.537 154.727 141.483 159.46 141.483 159.46M132.42 135.534C137.678 137.279 140.399 138.895 144.504 143.85C144.504 143.85 146.652 153.065 148.028 158.97M132.42 135.534V138.81M148.028 158.97C153.73 165.072 162.629 174.594 162.629 174.594C152.486 172.307 148.144 168.439 141.483 159.46M148.028 158.97C174.573 179.046 216 210.379 216 210.379V240.62H200.895V253.724H188.811V247.676H179.245V263.3H166.657V258.26H155.077V236.587H141.483C141.483 246.332 141.483 266.122 141.483 267.332C141.483 268.542 135.441 267.836 132.42 267.332V253.724H122.35V267.332H118.825V258.26H112.28V260.78H105.734V238.604V233.059L103.217 230.539V224.491H99.1888L93.1469 230.539V242.636H86.0979V247.676H76.028V263.3H69.986V256.244H66.965V253.724H63.4406L60.9231 256.244H58.4056L55.8881 253.724H45.8182V260.78H43.3007V265.82H39.2727V244.148H35.7483V234.067H23.6643L22.1538 253.724H16.1119V244.148L10.5734 238.604L0 234.067L10.5734 208.867C10.5734 208.867 35.8913 187.057 52.1138 173.082M58.4056 170.058C59.3887 168.484 59.7035 167.425 60.9231 166.026C62.397 164.335 63.3363 163.233 65.4545 162.498C68.6616 161.385 70.7009 163.271 74.014 164.01C78.812 165.08 81.655 165.433 86.0979 167.538C89.0086 168.918 90.3941 170.149 93.1469 171.822M58.4056 170.058C56.6359 177.538 53.8741 189.211 53.8741 189.211L51.3566 186.187C51.3566 185.551 51.773 178.624 52.1138 173.082M93.1469 171.822C91.9335 169.347 91.0155 168.026 89.1189 166.026C83.3814 159.977 68.979 158.97 68.979 158.97V145.069M68.979 145.069C68.979 145.069 67.4514 146.79 66.4615 147.882C63.0037 151.697 60.221 153.15 57.3986 157.458C54.694 161.586 52.3636 169.05 52.3636 169.05C52.2923 170.193 52.2058 171.587 52.1138 173.082M135.441 76.8164L132.42 63.2081C128.695 58.5964 125.874 49.5999 125.874 49.5999C125.874 49.5999 114.308 42.3652 110.266 33.9756C94.4325 36.005 85.8099 35.4926 72 24.3994C66.9147 34.9616 64.7134 41.331 53.3706 47.5838C48.9549 68.116 50.095 79.6339 53.105 100.178" stroke="#151719" stroke-width="3"/>
<defs>
<radialGradient id="paint0_radial_5_51" cx="0" cy="0" r="1" gradientUnits="userSpaceOnUse" gradientTransform="translate(108.543 2) rotate(90.1111) scale(280.001 252.94)">
<stop offset="0.605921" stop-color="#398914"/>
<stop offset="1" stop-color="#343238" stop-opacity="0"/>
</radialGradient>
</defs>
</svg>
