<svg width="175" height="236" viewBox="0 0 175 236" fill="none" xmlns="http://www.w3.org/2000/svg">
<path d="M39.1994 115.892C42.0371 118.901 48.7658 120.428 48.7658 120.428L45.8887 111.394C45.5832 109.445 44.504 103.537 42.2204 100.268C40.2271 97.414 35.6749 94.2198 35.6749 94.2198C35.6749 94.2198 35.385 99.1481 35.6749 102.284C35.7802 103.423 35.8312 104.505 35.88 105.54C36.0654 109.473 36.219 112.732 39.1994 115.892Z" fill="url(#paint0_radial_24_170)"/>
<path d="M35.6749 82.1235C36.4504 86.7832 35.6749 94.2198 35.6749 94.2198C35.6749 94.2198 40.2271 97.414 42.2204 100.268C44.504 103.537 45.5832 109.445 45.8887 111.394C42.9494 91.2506 41.8789 79.76 46.2483 59.4431C49.2279 57.8006 52.8611 56.1322 56.6911 54.3735C67.4418 49.4367 79.7435 43.7877 83.493 36C87.4561 39.1834 90.0394 41.8073 92.0827 43.8827C97.1597 49.0395 98.9028 50.81 110.192 49.3629C114.235 57.7525 118.752 61.4591 118.752 61.4591C118.752 61.4591 121.573 70.4557 125.297 75.0674L128.318 88.6757C129.661 86.4916 132.749 81.6195 134.36 79.6035C134.36 79.6035 141.665 60.3945 137.381 49.3629C137.188 48.8651 137.003 48.3865 136.825 47.9254L136.822 47.9171C134.162 41.0315 132.998 38.0172 127.378 32.3593C122.719 27.6695 119.549 25.5075 113.783 22.2791C107.697 18.8712 104.039 16.9198 97.1679 15.7269C87.4116 14.0334 81.3132 15.4035 71.9931 18.751C64.0262 21.6124 59.8515 24.3977 53.3637 29.8392C50.8538 31.9444 47.7337 33.604 44.6073 35.267C39.3443 38.0665 34.0637 40.8754 31.6469 45.8348C28.4481 52.3994 26.4921 56.702 27.1155 63.9792C27.4619 68.0229 29.4005 70.6717 31.3678 73.3597C33.1988 75.8615 35.0548 78.3973 35.6749 82.1235Z" fill="url(#paint1_radial_24_170)"/>
<path d="M125.297 134.037C115.116 147.979 107.812 156.436 92.0665 156.929C79.0885 157.335 71.6454 153.583 61.8567 143.028V156.929V170.829C61.8567 170.829 76.2591 171.836 81.9966 177.885C83.8932 179.885 84.8112 181.206 86.0246 183.681L90.0525 189.478H96.0945L103.143 181.917C103.143 181.917 107.862 180.037 110.192 177.885C111.94 176.271 112.564 174.49 113.202 172.667C113.769 171.049 114.346 169.399 115.731 167.805C118.776 164.299 121.05 162.622 125.297 160.749V150.669V147.393V134.037Z" fill="url(#paint2_radial_24_170)"/>
<path d="M81.9966 177.885C76.2591 171.836 61.8567 170.829 61.8567 170.829V156.929C61.8567 156.929 60.3291 158.649 59.3393 159.741C58.0157 161.201 56.7911 162.316 55.6253 163.376C53.7454 165.087 52.0184 166.658 50.2763 169.317C47.5717 173.445 45.2414 180.909 45.2414 180.909C45.17 182.052 45.0835 183.446 44.9916 184.941C44.6507 190.483 44.2344 197.411 44.2344 198.046L48.7658 221.859C48.7658 221.859 49.5137 189.397 51.2833 181.917C51.6288 181.364 51.8918 180.875 52.1404 180.411C52.5994 179.557 53.0098 178.793 53.8008 177.885L53.8624 177.815C55.3013 176.164 56.2437 175.082 58.3323 174.357C60.5078 173.602 62.146 174.227 64.009 174.938C64.8923 175.275 65.8261 175.632 66.8917 175.869C67.6332 176.035 68.3281 176.183 68.9893 176.323L69.2596 176.381L69.2707 176.383L69.2719 176.383C72.7445 177.119 75.3178 177.664 78.9756 179.397C80.8635 180.292 82.1097 181.125 83.5035 182.056C84.2587 182.56 85.0572 183.094 86.0246 183.681C84.8112 181.206 83.8932 179.885 81.9966 177.885Z" fill="url(#paint3_radial_24_170)"/>
<path d="M68.9057 186.454C77.0796 188.122 81.7388 188.789 90.0525 189.478L86.0246 183.681C85.0572 183.094 84.2587 182.56 83.5035 182.056C82.1097 181.125 80.8635 180.292 78.9756 179.397C75.3178 177.664 72.7445 177.119 69.2719 176.383L69.2707 176.383L69.2596 176.381L68.9893 176.323C68.3281 176.183 67.6332 176.035 66.8917 175.869C65.8261 175.632 64.8923 175.275 64.009 174.938C62.146 174.227 60.5078 173.602 58.3323 174.357C56.2437 175.082 55.3013 176.164 53.8624 177.815L53.8008 177.885C53.0098 178.793 52.5994 179.557 52.1404 180.411C51.8918 180.875 51.6288 181.364 51.2833 181.917C53.7018 182.54 55.7369 183.11 57.6616 183.648C61.2138 184.643 64.3899 185.532 68.9057 186.454Z" fill="url(#paint4_radial_24_170)"/>
<path d="M103.143 181.917L96.0945 189.478C96.0945 189.478 111.879 189.629 120.262 184.941C125.737 181.881 132.346 174.357 132.346 174.357L134.36 171.319C134.36 171.319 131.415 166.586 128.318 165.789C125.178 164.981 123.06 166.163 120.262 167.805C118.097 169.076 117.313 170.977 116.511 172.918C115.78 174.689 115.035 176.495 113.213 177.885C109.846 180.457 103.143 181.917 103.143 181.917Z" fill="url(#paint5_radial_24_170)"/>
<path d="M110.192 177.885C107.862 180.037 103.143 181.917 103.143 181.917C103.143 181.917 109.846 180.457 113.213 177.885C115.035 176.495 115.78 174.689 116.511 172.918C117.313 170.977 118.097 169.076 120.262 167.805C123.06 166.163 125.178 164.981 128.318 165.789C131.415 166.586 134.36 171.319 134.36 171.319C141.022 180.298 174.378 174.357 174.378 174.357C174.378 174.357 150.85 172.845 143.878 167.805C136.906 162.765 137.381 155.709 137.381 155.709C133.276 150.754 130.556 149.138 125.297 147.393V150.669C125.297 150.669 132.346 152.323 132.346 155.709C132.346 157.905 130.539 158.545 128.518 159.26C127.423 159.648 126.265 160.057 125.297 160.749C121.05 162.622 118.776 164.299 115.731 167.805C114.346 169.399 113.769 171.049 113.202 172.667C112.564 174.49 111.94 176.271 110.192 177.885Z" fill="url(#paint6_radial_24_170)"/>
<path d="M137.381 85.6516C137.381 79.1563 134.36 79.6035 134.36 79.6035C132.749 81.6195 129.661 86.4916 128.318 88.6757V112.868C128.318 112.868 137.381 108.779 137.381 102.284V85.6516Z" fill="url(#paint7_radial_24_170)"/>
<path fill-rule="evenodd" clip-rule="evenodd" d="M48.7658 120.428C48.7658 120.428 51.5603 129.502 54.8078 134.541C57.1423 138.163 61.8567 143.028 61.8567 143.028C71.6454 153.583 79.0885 157.335 92.0665 156.929C107.812 156.436 115.116 147.979 125.297 134.037C127.637 126.887 128.196 122.152 128.318 112.868V88.6757L125.297 75.0674C121.573 70.4557 118.752 61.4591 118.752 61.4591C118.752 61.4591 114.235 57.7525 110.192 49.3629C98.9028 50.81 97.1597 49.0395 92.0827 43.8827C90.0394 41.8073 87.4561 39.1834 83.493 36C79.7435 43.7877 67.4418 49.4367 56.6911 54.3735C52.8611 56.1322 49.2279 57.8006 46.2483 59.4431C41.8789 79.76 42.9494 91.2506 45.8887 111.394L48.7658 120.428ZM75.3229 116.186V117.822H92.3264V116.186C92.3264 113.819 92.6591 111.823 93.3243 110.2C93.9895 108.551 94.9741 107.088 96.278 105.811C97.6085 104.534 99.2716 103.31 101.267 102.14C103.822 100.623 106.044 98.9473 107.933 97.1116C109.849 95.2494 111.339 93.1078 112.403 90.6869C113.468 88.266 114 85.4727 114 82.3069C114 77.4917 112.776 73.4214 110.328 70.096C107.88 66.7705 104.514 64.2565 100.23 62.5539C95.972 60.8513 91.1024 60 85.6208 60C80.6182 60 76.0413 60.8646 71.8902 62.5938C67.7391 64.2964 64.3996 66.9302 61.8717 70.495C59.3704 74.0599 58.0798 78.6356 58 84.2223H76.3607C76.3873 82.3601 76.8263 80.7772 77.6778 79.4736C78.556 78.1435 79.6736 77.1192 81.0307 76.4009C82.4144 75.6827 83.8912 75.3235 85.4612 75.3235C87.0311 75.3235 88.4547 75.6561 89.732 76.3211C91.0359 76.9596 92.0603 77.8774 92.8054 79.0746C93.5505 80.2717 93.923 81.6551 93.923 83.2247C93.923 84.8475 93.5372 86.2974 92.7655 87.5743C91.9938 88.8513 90.9427 90.0485 89.6123 91.1658C88.3084 92.2565 86.8182 93.334 85.1418 94.3981C83.0397 95.7549 81.2568 97.258 79.7933 98.9074C78.3298 100.53 77.2122 102.685 76.4405 105.372C75.6954 108.059 75.3229 111.664 75.3229 116.186ZM76.7598 140.967C78.8087 142.989 81.2701 144 84.144 144C85.98 144 87.6698 143.534 89.2131 142.603C90.7831 141.672 92.047 140.422 93.005 138.852C93.9895 137.283 94.4951 135.54 94.5217 133.625C94.4951 130.805 93.4441 128.397 91.3685 126.402C89.2929 124.38 86.8848 123.369 84.144 123.369C81.2701 123.369 78.8087 124.38 76.7598 126.402C74.7375 128.397 73.7396 130.805 73.7662 133.625C73.7396 136.498 74.7375 138.945 76.7598 140.967Z" fill="url(#paint8_radial_24_170)"/>
<path d="M75.3229 117.822V116.186C75.3229 111.664 75.6954 108.059 76.4405 105.372C77.2122 102.685 78.3298 100.53 79.7933 98.9074C81.2568 97.258 83.0397 95.7549 85.1418 94.3981C86.8182 93.334 88.3084 92.2565 89.6123 91.1658C90.9427 90.0485 91.9938 88.8513 92.7655 87.5743C93.5372 86.2974 93.923 84.8475 93.923 83.2247C93.923 81.6551 93.5505 80.2717 92.8054 79.0746C92.0603 77.8774 91.0359 76.9596 89.732 76.3211C88.4547 75.6561 87.0311 75.3235 85.4612 75.3235C83.8912 75.3235 82.4144 75.6827 81.0307 76.4009C79.6736 77.1192 78.556 78.1435 77.6778 79.4736C76.8263 80.7772 76.3873 82.3601 76.3607 84.2223H58C58.0798 78.6356 59.3704 74.0599 61.8717 70.495C64.3996 66.9302 67.7391 64.2964 71.8902 62.5938C76.0413 60.8646 80.6182 60 85.6208 60C91.1024 60 95.972 60.8513 100.23 62.5539C104.514 64.2565 107.88 66.7705 110.328 70.096C112.776 73.4214 114 77.4917 114 82.3069C114 85.4727 113.468 88.266 112.403 90.6869C111.339 93.1078 109.849 95.2494 107.933 97.1116C106.044 98.9473 103.822 100.623 101.267 102.14C99.2716 103.31 97.6085 104.534 96.278 105.811C94.9741 107.088 93.9895 108.551 93.3243 110.2C92.6591 111.823 92.3264 113.819 92.3264 116.186V117.822H75.3229Z" fill="#5F5E62"/>
<path d="M84.144 144C81.2701 144 78.8087 142.989 76.7598 140.967C74.7375 138.945 73.7396 136.498 73.7662 133.625C73.7396 130.805 74.7375 128.397 76.7598 126.402C78.8087 124.38 81.2701 123.369 84.144 123.369C86.8848 123.369 89.2929 124.38 91.3685 126.402C93.4441 128.397 94.4951 130.805 94.5217 133.625C94.4951 135.54 93.9895 137.283 93.005 138.852C92.047 140.422 90.7831 141.672 89.2131 142.603C87.6698 143.534 85.98 144 84.144 144Z" fill="#5F5E62"/>
<path d="M48.7658 120.428C48.7658 120.428 51.5603 129.502 54.8078 134.541C57.1423 138.163 61.8567 143.028 61.8567 143.028M48.7658 120.428C48.7658 120.428 42.0371 118.901 39.1994 115.892C36.219 112.732 36.0654 109.473 35.88 105.54C35.8312 104.505 35.7802 103.423 35.6749 102.284C35.385 99.1481 35.6749 94.2198 35.6749 94.2198M48.7658 120.428L45.8887 111.394M35.6749 94.2198C35.6749 94.2198 36.4504 86.7832 35.6749 82.1235C35.0548 78.3973 33.1988 75.8615 31.3678 73.3597C29.4005 70.6717 27.4619 68.0229 27.1155 63.9792C26.4921 56.702 28.4481 52.3994 31.6469 45.8348C34.0637 40.8754 39.3443 38.0665 44.6073 35.267C47.7337 33.604 50.8538 31.9444 53.3637 29.8392C59.8515 24.3977 64.0262 21.6124 71.9931 18.751C81.3132 15.4035 87.4116 14.0334 97.1679 15.7269C104.039 16.9198 107.697 18.8712 113.783 22.2791C119.549 25.5075 122.719 27.6695 127.378 32.3593C132.998 38.0172 134.162 41.0315 136.822 47.9171M35.6749 94.2198C35.6749 94.2198 40.2271 97.414 42.2204 100.268C44.504 103.537 45.5832 109.445 45.8887 111.394M134.36 79.6035C134.36 79.6035 141.665 60.3945 137.381 49.3629C137.188 48.8651 137.003 48.3865 136.825 47.9254M134.36 79.6035C134.36 79.6035 137.381 79.1563 137.381 85.6516V102.284C137.381 108.779 128.318 112.868 128.318 112.868M134.36 79.6035C132.749 81.6195 129.661 86.4916 128.318 88.6757M128.318 112.868C128.196 122.152 127.637 126.887 125.297 134.037M128.318 112.868V88.6757M125.297 134.037C115.116 147.979 107.812 156.436 92.0665 156.929C79.0885 157.335 71.6454 153.583 61.8567 143.028M125.297 134.037V147.393M61.8567 143.028V156.929M90.0525 189.478H96.0945M90.0525 189.478C81.7388 188.789 77.0796 188.122 68.9057 186.454C64.3899 185.532 61.2138 184.643 57.6616 183.648C55.7369 183.11 53.7018 182.54 51.2833 181.917M90.0525 189.478L86.0246 183.681M96.0945 189.478L103.143 181.917M96.0945 189.478C96.0945 189.478 111.879 189.629 120.262 184.941C125.737 181.881 132.346 174.357 132.346 174.357L134.36 171.319M103.143 181.917C103.143 181.917 107.862 180.037 110.192 177.885C111.94 176.271 112.564 174.49 113.202 172.667C113.769 171.049 114.346 169.399 115.731 167.805C118.776 164.299 121.05 162.622 125.297 160.749M103.143 181.917C103.143 181.917 109.846 180.457 113.213 177.885C115.035 176.495 115.78 174.689 116.511 172.918C117.313 170.977 118.097 169.076 120.262 167.805C123.06 166.163 125.178 164.981 128.318 165.789C131.415 166.586 134.36 171.319 134.36 171.319M125.297 160.749V150.669M125.297 160.749C126.265 160.057 127.423 159.648 128.518 159.26C130.539 158.545 132.346 157.905 132.346 155.709C132.346 152.323 125.297 150.669 125.297 150.669M125.297 147.393C130.556 149.138 133.276 150.754 137.381 155.709C137.381 155.709 136.906 162.765 143.878 167.805C150.85 172.845 174.378 174.357 174.378 174.357C174.378 174.357 141.022 180.298 134.36 171.319M125.297 147.393V150.669M51.2833 181.917C49.5137 189.397 48.7658 221.859 48.7658 221.859L44.2344 198.046C44.2344 197.411 44.6507 190.483 44.9916 184.941C45.0835 183.446 45.17 182.052 45.2414 180.909C45.2414 180.909 47.5717 173.445 50.2763 169.317C52.0184 166.658 53.7454 165.087 55.6253 163.376C56.7911 162.316 58.0157 161.201 59.3393 159.741C60.3291 158.649 61.8567 156.929 61.8567 156.929M51.2833 181.917C51.6288 181.364 51.8918 180.875 52.1404 180.411C52.5994 179.557 53.0098 178.793 53.8008 177.885L53.8624 177.815C55.3013 176.164 56.2437 175.082 58.3323 174.357C60.5078 173.602 62.146 174.227 64.009 174.938C64.8923 175.275 65.8261 175.632 66.8917 175.869C67.6332 176.035 68.3281 176.183 68.9893 176.323M86.0246 183.681C84.8112 181.206 83.8932 179.885 81.9966 177.885C76.2591 171.836 61.8567 170.829 61.8567 170.829V156.929M86.0246 183.681C85.0572 183.094 84.2587 182.56 83.5035 182.056C82.1097 181.125 80.8635 180.292 78.9756 179.397C75.3178 177.664 72.7445 177.119 69.2719 176.383L69.2707 176.383M45.8887 111.394C42.9494 91.2506 41.8789 79.76 46.2483 59.4431C49.2279 57.8006 52.8611 56.1322 56.6911 54.3735C67.4418 49.4367 79.7435 43.7877 83.493 36C87.4561 39.1834 90.0394 41.8073 92.0827 43.8827C97.1597 49.0395 98.9028 50.81 110.192 49.3629C114.235 57.7525 118.752 61.4591 118.752 61.4591C118.752 61.4591 121.573 70.4557 125.297 75.0674L128.318 88.6757M136.825 47.9254L136.822 47.9171M136.825 47.9254C136.824 47.9226 136.823 47.9199 136.822 47.9171M68.9893 176.323C69.08 176.342 69.1701 176.362 69.2596 176.381M68.9893 176.323C69.0838 176.343 69.1776 176.363 69.2707 176.383M68.9893 176.323L69.2596 176.381M69.2596 176.381L69.2707 176.383M69.2596 176.381C69.2633 176.381 69.267 176.382 69.2707 176.383M75.3229 117.822V116.186C75.3229 111.664 75.6954 108.059 76.4405 105.372C77.2122 102.685 78.3298 100.53 79.7933 98.9074C81.2568 97.258 83.0397 95.7549 85.1418 94.3981C86.8182 93.334 88.3084 92.2565 89.6123 91.1658C90.9427 90.0485 91.9938 88.8513 92.7655 87.5743C93.5372 86.2974 93.923 84.8475 93.923 83.2247C93.923 81.6551 93.5505 80.2717 92.8054 79.0746C92.0603 77.8774 91.0359 76.9596 89.732 76.3211C88.4547 75.6561 87.0311 75.3235 85.4612 75.3235C83.8912 75.3235 82.4144 75.6827 81.0307 76.4009C79.6736 77.1192 78.556 78.1435 77.6778 79.4736C76.8263 80.7772 76.3873 82.3601 76.3607 84.2223H58C58.0798 78.6356 59.3704 74.0599 61.8717 70.495C64.3996 66.9302 67.7391 64.2964 71.8902 62.5938C76.0413 60.8646 80.6182 60 85.6208 60C91.1024 60 95.972 60.8513 100.23 62.5539C104.514 64.2565 107.88 66.7705 110.328 70.096C112.776 73.4214 114 77.4917 114 82.3069C114 85.4727 113.468 88.266 112.403 90.6869C111.339 93.1078 109.849 95.2494 107.933 97.1116C106.044 98.9473 103.822 100.623 101.267 102.14C99.2716 103.31 97.6085 104.534 96.278 105.811C94.9741 107.088 93.9895 108.551 93.3243 110.2C92.6591 111.823 92.3264 113.819 92.3264 116.186V117.822H75.3229ZM84.144 144C81.2701 144 78.8087 142.989 76.7598 140.967C74.7375 138.945 73.7396 136.498 73.7662 133.625C73.7396 130.805 74.7375 128.397 76.7598 126.402C78.8087 124.38 81.2701 123.369 84.144 123.369C86.8848 123.369 89.2929 124.38 91.3685 126.402C93.4441 128.397 94.4951 130.805 94.5217 133.625C94.4951 135.54 93.9895 137.283 93.005 138.852C92.047 140.422 90.7831 141.672 89.2131 142.603C87.6698 143.534 85.98 144 84.144 144Z" stroke="#151719" stroke-width="3"/>
<defs>
<radialGradient id="paint0_radial_24_170" cx="0" cy="0" r="1" gradientUnits="userSpaceOnUse" gradientTransform="translate(88.5 101.5) rotate(89.4271) scale(100.005 85.1374)">
<stop stop-color="#343238"/>
<stop offset="1" stop-color="#353238" stop-opacity="0"/>
</radialGradient>
<radialGradient id="paint1_radial_24_170" cx="0" cy="0" r="1" gradientUnits="userSpaceOnUse" gradientTransform="translate(88.5 101.5) rotate(89.4271) scale(100.005 85.1374)">
<stop stop-color="#343238"/>
<stop offset="1" stop-color="#353238" stop-opacity="0"/>
</radialGradient>
<radialGradient id="paint2_radial_24_170" cx="0" cy="0" r="1" gradientUnits="userSpaceOnUse" gradientTransform="translate(88.5 101.5) rotate(89.4271) scale(100.005 85.1374)">
<stop stop-color="#343238"/>
<stop offset="1" stop-color="#353238" stop-opacity="0"/>
</radialGradient>
<radialGradient id="paint3_radial_24_170" cx="0" cy="0" r="1" gradientUnits="userSpaceOnUse" gradientTransform="translate(88.5 101.5) rotate(89.4271) scale(100.005 85.1374)">
<stop stop-color="#343238"/>
<stop offset="1" stop-color="#353238" stop-opacity="0"/>
</radialGradient>
<radialGradient id="paint4_radial_24_170" cx="0" cy="0" r="1" gradientUnits="userSpaceOnUse" gradientTransform="translate(88.5 101.5) rotate(89.4271) scale(100.005 85.1374)">
<stop stop-color="#343238"/>
<stop offset="1" stop-color="#353238" stop-opacity="0"/>
</radialGradient>
<radialGradient id="paint5_radial_24_170" cx="0" cy="0" r="1" gradientUnits="userSpaceOnUse" gradientTransform="translate(88.5 101.5) rotate(89.4271) scale(100.005 85.1374)">
<stop stop-color="#343238"/>
<stop offset="1" stop-color="#353238" stop-opacity="0"/>
</radialGradient>
<radialGradient id="paint6_radial_24_170" cx="0" cy="0" r="1" gradientUnits="userSpaceOnUse" gradientTransform="translate(88.5 101.5) rotate(89.4271) scale(100.005 85.1374)">
<stop stop-color="#343238"/>
<stop offset="1" stop-color="#353238" stop-opacity="0"/>
</radialGradient>
<radialGradient id="paint7_radial_24_170" cx="0" cy="0" r="1" gradientUnits="userSpaceOnUse" gradientTransform="translate(88.5 101.5) rotate(89.4271) scale(100.005 85.1374)">
<stop stop-color="#343238"/>
<stop offset="1" stop-color="#353238" stop-opacity="0"/>
</radialGradient>
<radialGradient id="paint8_radial_24_170" cx="0" cy="0" r="1" gradientUnits="userSpaceOnUse" gradientTransform="translate(88.5 101.5) rotate(89.4271) scale(100.005 85.1374)">
<stop stop-color="#343238"/>
<stop offset="1" stop-color="#353238" stop-opacity="0"/>
</radialGradient>
</defs>
</svg>
